<svg width="975" height="448" fill="none" xmlns="http://www.w3.org/2000/svg"><path fill="#F7F7F7" d="M0 0h975v448H0z"/><path d="M383 373h306M673 216H370" stroke="#000" stroke-width="1.5" stroke-linecap="round" stroke-dasharray="0.5 8"/><circle cx="770" cy="289" r="117" fill="#333293" fill-opacity=".9"/><path d="M730.099 284v-2.142h-6.321V269.3h-2.415V284h8.736zm11.617-1.974c-.462 0-.693-.147-.693-.693v-4.305c0-2.541-1.638-3.906-4.494-3.906-2.709 0-4.515 1.302-4.746 3.402h2.226c.168-.945 1.071-1.575 2.415-1.575 1.491 0 2.352.735 2.352 1.932v.651h-2.709c-3.003 0-4.599 1.239-4.599 3.444 0 1.995 1.638 3.15 3.99 3.15 1.743 0 2.835-.756 3.549-1.848 0 1.071.504 1.722 1.974 1.722h1.197v-1.974h-.462zm-2.94-2.436c-.021 1.659-1.113 2.772-3.003 2.772-1.239 0-1.995-.63-1.995-1.533 0-1.092.777-1.617 2.184-1.617h2.814v.378zm10.727-6.468c-1.743 0-2.772.693-3.444 1.533l-.252-1.407h-1.974V284h2.268v-5.418c0-2.184 1.071-3.507 2.877-3.507 1.701 0 2.562 1.092 2.562 3.129V284h2.289v-5.985c0-3.591-1.953-4.893-4.326-4.893zm15.02 1.806c-.693-1.071-1.848-1.806-3.528-1.806-2.919 0-5.082 2.163-5.082 5.46 0 3.423 2.163 5.46 5.082 5.46 1.68 0 2.793-.693 3.507-1.764v1.197c0 2.058-1.113 3.003-3.087 3.003-1.596 0-2.646-.693-2.919-1.89h-2.31c.21 2.415 2.205 3.738 5.061 3.738 3.864 0 5.502-1.848 5.502-4.767v-10.311h-1.974l-.252 1.68zm-3.15 7.203c-1.89 0-3.129-1.449-3.129-3.549 0-2.079 1.239-3.549 3.129-3.549s3.129 1.47 3.129 3.591c0 2.058-1.239 3.507-3.129 3.507zm15.383-3.507c0 2.226-1.05 3.528-2.772 3.528-1.659 0-2.499-1.071-2.499-3.171v-5.733h-2.268v5.985c0 3.675 1.953 4.893 4.242 4.893 1.659 0 2.646-.672 3.318-1.491l.252 1.365h1.995v-10.752h-2.268v5.376zm14.751 3.402c-.462 0-.693-.147-.693-.693v-4.305c0-2.541-1.638-3.906-4.494-3.906-2.709 0-4.515 1.302-4.746 3.402h2.226c.168-.945 1.071-1.575 2.415-1.575 1.491 0 2.352.735 2.352 1.932v.651h-2.709c-3.003 0-4.599 1.239-4.599 3.444 0 1.995 1.638 3.15 3.99 3.15 1.743 0 2.835-.756 3.549-1.848 0 1.071.504 1.722 1.974 1.722h1.197v-1.974h-.462zm-2.94-2.436c-.021 1.659-1.113 2.772-3.003 2.772-1.239 0-1.995-.63-1.995-1.533 0-1.092.777-1.617 2.184-1.617h2.814v.378zm13.268-4.662c-.693-1.071-1.848-1.806-3.528-1.806-2.919 0-5.082 2.163-5.082 5.46 0 3.423 2.163 5.46 5.082 5.46 1.68 0 2.793-.693 3.507-1.764v1.197c0 2.058-1.113 3.003-3.087 3.003-1.596 0-2.646-.693-2.919-1.89h-2.31c.21 2.415 2.205 3.738 5.061 3.738 3.864 0 5.502-1.848 5.502-4.767v-10.311h-1.974l-.252 1.68zm-3.15 7.203c-1.89 0-3.129-1.449-3.129-3.549 0-2.079 1.239-3.549 3.129-3.549s3.129 1.47 3.129 3.591c0 2.058-1.239 3.507-3.129 3.507zm13.116 1.995c2.667 0 4.473-1.617 4.851-3.738h-2.268c-.315 1.197-1.323 1.89-2.709 1.89-1.785 0-2.94-1.197-3.003-3.024v-.147h8.106a6.16 6.16 0 00.063-.861c-.063-3.15-2.142-5.124-5.25-5.124-3.171 0-5.292 2.205-5.292 5.523 0 3.297 2.121 5.481 5.502 5.481zm-3.045-6.678c.168-1.533 1.407-2.499 2.856-2.499 1.575 0 2.688.903 2.877 2.499h-5.733zM739.645 308h2.331v-10.815l4.41 10.815h2.037l4.41-10.815V308h2.331v-14.7h-3.066l-4.62 11.571-4.704-11.571h-3.129V308zm23.482.126c3.276 0 5.481-2.205 5.481-5.502 0-3.276-2.205-5.502-5.481-5.502s-5.481 2.226-5.481 5.502c0 3.297 2.205 5.502 5.481 5.502zm0-1.932c-1.911 0-3.15-1.491-3.15-3.57 0-2.079 1.239-3.57 3.15-3.57 1.911 0 3.171 1.491 3.171 3.57 0 2.079-1.26 3.57-3.171 3.57zm15.893-7.455c-.693-.945-1.848-1.617-3.486-1.617-2.919 0-5.082 2.184-5.082 5.502 0 3.444 2.163 5.502 5.082 5.502 1.701 0 2.814-.798 3.507-1.743l.273 1.617h1.974v-14.7h-2.268v5.439zm-3.108 7.476c-1.89 0-3.129-1.47-3.129-3.591 0-2.1 1.239-3.57 3.129-3.57s3.129 1.47 3.129 3.612c0 2.079-1.239 3.549-3.129 3.549zm13.116 1.911c2.667 0 4.473-1.617 4.851-3.738h-2.268c-.315 1.197-1.323 1.89-2.709 1.89-1.785 0-2.94-1.197-3.003-3.024v-.147h8.106a6.16 6.16 0 00.063-.861c-.063-3.15-2.142-5.124-5.25-5.124-3.171 0-5.292 2.205-5.292 5.523 0 3.297 2.121 5.481 5.502 5.481zm-3.045-6.678c.168-1.533 1.407-2.499 2.856-2.499 1.575 0 2.688.903 2.877 2.499h-5.733zM796.321 308h2.268v-14.7h-2.268V308z" fill="#F1F1F7"/><path d="M222.428 66h1.827v-5.649h3.822c2.94 0 4.872-1.785 4.872-4.536 0-2.751-1.932-4.515-4.872-4.515h-5.649V66zm5.502-13.02c1.932 0 3.15 1.092 3.15 2.835 0 1.743-1.239 2.856-3.171 2.856h-3.654V52.98h3.675zm12.091 2.31c-1.911 0-2.73.798-3.234 1.617l-.231-1.617h-1.491V66h1.722v-5.46c0-1.701.609-3.57 2.856-3.57h.861v-1.68h-.483zm6.715 10.836c3.129 0 5.313-2.226 5.313-5.481s-2.184-5.481-5.313-5.481c-3.129 0-5.313 2.226-5.313 5.481s2.184 5.481 5.313 5.481zm0-1.533c-2.121 0-3.549-1.659-3.549-3.948 0-2.289 1.428-3.948 3.549-3.948s3.549 1.659 3.549 3.948c0 2.289-1.428 3.948-3.549 3.948zm19.657-9.429c-1.911 0-3.066.882-3.717 2.037-.609-1.365-1.89-2.037-3.381-2.037-1.659 0-2.562.819-3.129 1.596l-.231-1.47h-1.491V66h1.722v-5.649c0-2.142 1.071-3.612 2.835-3.612 1.638 0 2.583 1.092 2.583 3.192V66h1.722v-5.733c0-2.184 1.092-3.528 2.877-3.528 1.617 0 2.541 1.092 2.541 3.192V66h1.722v-6.174c0-3.381-1.827-4.662-4.053-4.662zm12.079 0c-1.806 0-2.961.861-3.675 1.848l-.231-1.722h-1.491V70.2h1.722v-5.838c.651 1.029 1.869 1.764 3.675 1.764 2.961 0 5.145-2.205 5.145-5.481 0-3.486-2.184-5.481-5.145-5.481zm-.168 9.429c-2.1 0-3.528-1.638-3.528-3.99 0-2.289 1.428-3.906 3.528-3.906 2.121 0 3.549 1.617 3.549 3.948s-1.428 3.948-3.549 3.948zm8.375-1.386c0 1.89.735 2.793 2.793 2.793h1.869v-1.575h-1.701c-.924 0-1.239-.336-1.239-1.239v-6.321h2.772V55.29h-2.772v-3.003h-1.722v3.003h-1.932v1.575h1.932v6.342zM228.749 327.126c3.318 0 5.754-1.89 6.3-4.935h-1.932c-.546 2.058-2.121 3.255-4.389 3.255-3.087 0-4.977-2.415-4.977-5.796 0-3.402 1.974-5.796 5.061-5.796 2.205 0 3.759 1.218 4.326 3.255h1.932c-.546-3.045-2.919-4.935-6.174-4.935-4.263 0-7.014 3.024-7.014 7.476 0 4.494 2.646 7.476 6.867 7.476zm13.609 0c3.129 0 5.313-2.226 5.313-5.481s-2.184-5.481-5.313-5.481c-3.129 0-5.313 2.226-5.313 5.481s2.184 5.481 5.313 5.481zm0-1.533c-2.121 0-3.549-1.659-3.549-3.948 0-2.289 1.428-3.948 3.549-3.948s3.549 1.659 3.549 3.948c0 2.289-1.428 3.948-3.549 3.948zm19.657-9.429c-1.911 0-3.066.882-3.717 2.037-.609-1.365-1.89-2.037-3.381-2.037-1.659 0-2.562.819-3.129 1.596l-.231-1.47h-1.491V327h1.722v-5.649c0-2.142 1.071-3.612 2.835-3.612 1.638 0 2.583 1.092 2.583 3.192V327h1.722v-5.733c0-2.184 1.092-3.528 2.877-3.528 1.617 0 2.541 1.092 2.541 3.192V327h1.722v-6.174c0-3.381-1.827-4.662-4.053-4.662zm12.079 0c-1.806 0-2.961.861-3.675 1.848l-.231-1.722h-1.491v14.91h1.722v-5.838c.651 1.029 1.869 1.764 3.675 1.764 2.961 0 5.145-2.205 5.145-5.481 0-3.486-2.184-5.481-5.145-5.481zm-.168 9.429c-2.1 0-3.528-1.638-3.528-3.99 0-2.289 1.428-3.906 3.528-3.906 2.121 0 3.549 1.617 3.549 3.948s-1.428 3.948-3.549 3.948zm7.701 1.407h1.722v-14.7h-1.722V327zm9.436.126c2.478 0 4.242-1.575 4.662-3.717h-1.743c-.357 1.386-1.533 2.184-3.045 2.184-2.037 0-3.318-1.428-3.381-3.465v-.147h8.316c.021-.252.042-.504.042-.735-.084-3.171-2.058-5.082-5.082-5.082s-5.082 2.226-5.082 5.481c0 3.276 2.1 5.481 5.313 5.481zm-3.402-6.573c.168-1.743 1.617-2.877 3.192-2.877 1.785 0 3.045 1.029 3.213 2.877h-6.405zm11.312 3.654c0 1.89.735 2.793 2.793 2.793h1.869v-1.575h-1.701c-.924 0-1.239-.336-1.239-1.239v-6.321h2.772v-1.575h-2.772v-3.003h-1.722v3.003h-1.932v1.575h1.932v6.342zm7.457-9.723c.63 0 1.113-.462 1.113-1.113s-.483-1.113-1.113-1.113-1.113.462-1.113 1.113.483 1.113 1.113 1.113zM305.548 327h1.722v-10.71h-1.722V327zm9.436.126c3.129 0 5.313-2.226 5.313-5.481s-2.184-5.481-5.313-5.481c-3.129 0-5.313 2.226-5.313 5.481s2.184 5.481 5.313 5.481zm0-1.533c-2.121 0-3.549-1.659-3.549-3.948 0-2.289 1.428-3.948 3.549-3.948s3.549 1.659 3.549 3.948c0 2.289-1.428 3.948-3.549 3.948zm12.957-9.429c-1.806 0-2.898.756-3.528 1.575l-.231-1.449h-1.491V327h1.722v-5.355c0-2.415 1.218-3.906 3.234-3.906 1.869 0 2.898 1.176 2.898 3.402V327h1.722v-5.964c0-3.549-1.911-4.872-4.326-4.872z" fill="#262626"/><rect x="221" y="80" width="317" height="203" rx="4" fill="#EBEBF8"/><rect x="233" y="88" width="293" height="59" rx="10" fill="#333293" fill-opacity=".6"/><rect x="233" y="155" width="293" height="20" rx="10" fill="#333293" fill-opacity=".6"/><rect x="221" y="341" width="317" height="64" rx="4" fill="#EBEBF8"/><rect x="526" y="393" width="293" height="8" rx="4" transform="rotate(-180 526 393)" fill="#917EF3"/><rect x="526" y="377" width="293" height="8" rx="4" transform="rotate(-180 526 377)" fill="#917EF3"/><rect x="233" y="183" width="293" height="20" rx="10" fill="#333293" fill-opacity=".8"/><rect x="233" y="211" width="293" height="60" rx="10" fill="#333293"/><rect x="526" y="361" width="146" height="8" rx="4" transform="rotate(-180 526 361)" fill="#917EF3"/><path d="M585.526 182h1.392v-11.2h-1.392V182zm7.851-8.256c-1.376 0-2.208.576-2.688 1.2l-.176-1.104h-1.136V182h1.312v-4.08c0-1.84.928-2.976 2.464-2.976 1.424 0 2.208.896 2.208 2.592V182h1.312v-4.544c0-2.704-1.456-3.712-3.296-3.712zm9.561 0c-1.376 0-2.256.656-2.8 1.408l-.176-1.312h-1.136v11.36h1.312v-4.448c.496.784 1.424 1.344 2.8 1.344 2.256 0 3.92-1.68 3.92-4.176 0-2.656-1.664-4.176-3.92-4.176zm-.128 7.184c-1.6 0-2.688-1.248-2.688-3.04 0-1.744 1.088-2.976 2.688-2.976 1.616 0 2.704 1.232 2.704 3.008s-1.088 3.008-2.704 3.008zm11.739-3.008c0 1.84-.896 2.976-2.384 2.976-1.36 0-2.128-.896-2.128-2.592v-4.464h-1.312v4.544c0 2.704 1.424 3.712 3.216 3.712 1.344 0 2.128-.576 2.608-1.184l.176 1.088h1.136v-8.16h-1.312v4.08zm4.22 1.952c0 1.44.56 2.128 2.128 2.128h1.424v-1.2h-1.296c-.704 0-.944-.256-.944-.944v-4.816h2.112v-1.2h-2.112v-2.288h-1.312v2.288h-1.472v1.2h1.472v4.832zM589.738 347.4c0-3.296-2.192-5.696-5.344-5.696s-5.344 2.4-5.344 5.696 2.192 5.696 5.344 5.696 5.344-2.4 5.344-5.696zm-9.264 0c0-2.576 1.584-4.416 3.92-4.416s3.92 1.84 3.92 4.416c0 2.576-1.584 4.416-3.92 4.416s-3.92-1.84-3.92-4.416zm17.023 1.52c0 1.84-.896 2.976-2.384 2.976-1.36 0-2.128-.896-2.128-2.592v-4.464h-1.312v4.544c0 2.704 1.424 3.712 3.216 3.712 1.344 0 2.128-.576 2.608-1.184l.176 1.088h1.136v-8.16h-1.312v4.08zm4.22 1.952c0 1.44.56 2.128 2.128 2.128h1.424v-1.2h-1.296c-.704 0-.944-.256-.944-.944v-4.816h2.112v-1.2h-2.112v-2.288h-1.312v2.288h-1.472v1.2h1.472v4.832zm9.281-6.128c-1.376 0-2.256.656-2.8 1.408l-.176-1.312h-1.136v11.36h1.312v-4.448c.496.784 1.424 1.344 2.8 1.344 2.256 0 3.92-1.68 3.92-4.176 0-2.656-1.664-4.176-3.92-4.176zm-.128 7.184c-1.6 0-2.688-1.248-2.688-3.04 0-1.744 1.088-2.976 2.688-2.976 1.616 0 2.704 1.232 2.704 3.008s-1.088 3.008-2.704 3.008zm11.739-3.008c0 1.84-.896 2.976-2.384 2.976-1.36 0-2.128-.896-2.128-2.592v-4.464h-1.312v4.544c0 2.704 1.424 3.712 3.216 3.712 1.344 0 2.128-.576 2.608-1.184l.176 1.088h1.136v-8.16h-1.312v4.08zm4.22 1.952c0 1.44.56 2.128 2.128 2.128h1.424v-1.2h-1.296c-.704 0-.944-.256-.944-.944v-4.816h2.112v-1.2h-2.112v-2.288h-1.312v2.288h-1.472v1.2h1.472v4.832z" fill="#262626"/><circle cx="537" cy="373" fill="#333293" r="7"/><path d="M683.5 216a6.5 6.5 0 11-13 0 6.5 6.5 0 0113 0z" fill="#333293" stroke="#333293"/><path d="M243.28 97.32h3.178V106h1.218v-8.68h3.178V96.2h-7.574v1.12zm12.699 1.456c-1.204 0-1.932.588-2.352 1.26V96.2h-1.148v9.8h1.148v-3.57c0-1.61.826-2.604 2.156-2.604 1.232 0 1.946.784 1.946 2.268V106h1.148v-3.976c0-2.366-1.302-3.248-2.898-3.248zm5.509-1.12c.42 0 .742-.308.742-.742a.721.721 0 00-.742-.742.721.721 0 00-.742.742c0 .434.322.742.742.742zM260.9 106h1.148v-7.14H260.9V106zm2.987-2.352c.028 1.568 1.302 2.436 3.15 2.436 1.582 0 2.856-.826 2.856-2.156 0-1.582-1.302-1.89-2.926-2.086-1.036-.126-1.792-.224-1.792-1.008 0-.658.672-1.078 1.666-1.078.98 0 1.652.546 1.736 1.274h1.176c-.112-1.484-1.288-2.24-2.912-2.254-1.61-.014-2.8.84-2.8 2.142 0 1.484 1.274 1.806 2.87 2.002 1.064.126 1.848.196 1.848 1.092 0 .658-.714 1.092-1.722 1.092-1.19 0-1.932-.616-1.974-1.456h-1.176zm12.652-5.992c.42 0 .742-.308.742-.742a.721.721 0 00-.742-.742.721.721 0 00-.742.742c0 .434.322.742.742.742zm-.588 8.344h1.148v-7.14h-1.148V106zm2.987-2.352c.028 1.568 1.302 2.436 3.15 2.436 1.582 0 2.856-.826 2.856-2.156 0-1.582-1.302-1.89-2.926-2.086-1.036-.126-1.792-.224-1.792-1.008 0-.658.672-1.078 1.666-1.078.98 0 1.652.546 1.736 1.274h1.176c-.112-1.484-1.288-2.24-2.912-2.254-1.61-.014-2.8.84-2.8 2.142 0 1.484 1.274 1.806 2.87 2.002 1.064.126 1.848.196 1.848 1.092 0 .658-.714 1.092-1.722 1.092-1.19 0-1.932-.616-1.974-1.456h-1.176zm18.378 1.302c-.322 0-.462-.098-.462-.476v-3.122c0-1.666-1.05-2.576-2.87-2.576-1.722 0-2.856.826-3.024 2.226h1.148c.14-.728.812-1.204 1.82-1.204 1.12 0 1.778.56 1.778 1.484v.49h-2.1c-1.876 0-2.87.798-2.87 2.226 0 1.302 1.064 2.086 2.632 2.086 1.232 0 1.946-.546 2.394-1.19.014.7.336 1.106 1.288 1.106h.63v-1.05h-.364zm-1.61-1.862c0 1.19-.826 2.016-2.254 2.016-.952 0-1.554-.476-1.554-1.176 0-.812.574-1.19 1.596-1.19h2.212v.35zm10.847 2.996c1.736 0 2.898-.98 3.178-2.52h-1.218c-.224.91-.924 1.498-1.946 1.498-1.372 0-2.296-1.064-2.296-2.618 0-1.554.924-2.646 2.296-2.646 1.05 0 1.75.574 1.96 1.526h1.204c-.294-1.568-1.4-2.548-3.15-2.548-2.072 0-3.486 1.484-3.486 3.668 0 2.226 1.372 3.64 3.458 3.64zm8.286 0c2.086 0 3.542-1.484 3.542-3.654s-1.456-3.654-3.542-3.654-3.542 1.484-3.542 3.654 1.456 3.654 3.542 3.654zm0-1.022c-1.414 0-2.366-1.106-2.366-2.632s.952-2.632 2.366-2.632c1.414 0 2.366 1.106 2.366 2.632s-.952 2.632-2.366 2.632zm8.919-6.286c-1.204 0-1.932.504-2.352 1.05l-.154-.966h-.994V106h1.148v-3.57c0-1.61.812-2.604 2.156-2.604 1.246 0 1.932.784 1.932 2.268V106h1.148v-3.976c0-2.366-1.274-3.248-2.884-3.248zm6.608 7.224h1.386l2.674-7.14h-1.204l-2.142 5.838-2.156-5.838h-1.232l2.674 7.14zm8.452.084c1.652 0 2.828-1.05 3.108-2.478h-1.162c-.238.924-1.022 1.456-2.03 1.456-1.358 0-2.212-.952-2.254-2.31v-.098h5.544c.014-.168.028-.336.028-.49-.056-2.114-1.372-3.388-3.388-3.388s-3.388 1.484-3.388 3.654c0 2.184 1.4 3.654 3.542 3.654zm-2.268-4.382c.112-1.162 1.078-1.918 2.128-1.918 1.19 0 2.03.686 2.142 1.918h-4.27zm10.676-2.842c-1.274 0-1.82.532-2.156 1.078l-.154-1.078h-.994V106h1.148v-3.64c0-1.134.406-2.38 1.904-2.38h.574v-1.12h-.322zm1.433 4.788c.028 1.568 1.302 2.436 3.15 2.436 1.582 0 2.856-.826 2.856-2.156 0-1.582-1.302-1.89-2.926-2.086-1.036-.126-1.792-.224-1.792-1.008 0-.658.672-1.078 1.666-1.078.98 0 1.652.546 1.736 1.274h1.176c-.112-1.484-1.288-2.24-2.912-2.254-1.61-.014-2.8.84-2.8 2.142 0 1.484 1.274 1.806 2.87 2.002 1.064.126 1.848.196 1.848 1.092 0 .658-.714 1.092-1.722 1.092-1.19 0-1.932-.616-1.974-1.456h-1.176zm14.154 1.302c-.322 0-.462-.098-.462-.476v-3.122c0-1.666-1.05-2.576-2.87-2.576-1.722 0-2.856.826-3.024 2.226h1.148c.14-.728.812-1.204 1.82-1.204 1.12 0 1.778.56 1.778 1.484v.49h-2.1c-1.876 0-2.87.798-2.87 2.226 0 1.302 1.064 2.086 2.632 2.086 1.232 0 1.946-.546 2.394-1.19.014.7.336 1.106 1.288 1.106h.63v-1.05h-.364zm-1.61-1.862c0 1.19-.826 2.016-2.254 2.016-.952 0-1.554-.476-1.554-1.176 0-.812.574-1.19 1.596-1.19h2.212v.35zm3.949 1.05c0 1.26.49 1.862 1.862 1.862h1.246v-1.05h-1.134c-.616 0-.826-.224-.826-.826V99.91h1.848v-1.05H366.3v-2.002h-1.148v2.002h-1.288v1.05h1.288v4.228zm5.251-6.482c.42 0 .742-.308.742-.742a.721.721 0 00-.742-.742.721.721 0 00-.742.742c0 .434.322.742.742.742zm-.588 8.344h1.148v-7.14h-1.148V106zm6.57.084c2.086 0 3.542-1.484 3.542-3.654s-1.456-3.654-3.542-3.654-3.542 1.484-3.542 3.654 1.456 3.654 3.542 3.654zm0-1.022c-1.414 0-2.366-1.106-2.366-2.632s.952-2.632 2.366-2.632c1.414 0 2.366 1.106 2.366 2.632s-.952 2.632-2.366 2.632zm8.919-6.286c-1.204 0-1.932.504-2.352 1.05l-.154-.966h-.994V106h1.148v-3.57c0-1.61.812-2.604 2.156-2.604 1.246 0 1.932.784 1.932 2.268V106h1.148v-3.976c0-2.366-1.274-3.248-2.884-3.248zm12.729 0c-1.204 0-1.974.574-2.45 1.232V96.2h-1.148v9.8h.994l.154-1.092c.434.686 1.246 1.176 2.45 1.176 1.974 0 3.43-1.47 3.43-3.654 0-2.324-1.456-3.654-3.43-3.654zm-.112 6.286c-1.4 0-2.352-1.092-2.352-2.66 0-1.526.952-2.604 2.352-2.604 1.414 0 2.366 1.078 2.366 2.632s-.952 2.632-2.366 2.632zm8.704 1.022c1.652 0 2.828-1.05 3.108-2.478h-1.162c-.238.924-1.022 1.456-2.03 1.456-1.358 0-2.212-.952-2.254-2.31v-.098h5.544c.014-.168.028-.336.028-.49-.056-2.114-1.372-3.388-3.388-3.388s-3.388 1.484-3.388 3.654c0 2.184 1.4 3.654 3.542 3.654zm-2.268-4.382c.112-1.162 1.078-1.918 2.128-1.918 1.19 0 2.03.686 2.142 1.918h-4.27zm7.822 2.436c0 1.26.49 1.862 1.862 1.862h1.246v-1.05h-1.134c-.616 0-.826-.224-.826-.826V99.91h1.848v-1.05h-1.848v-2.002h-1.148v2.002h-1.288v1.05h1.288v4.228zM418.48 106h1.26l1.792-5.306 1.722 5.306h1.26l2.38-7.14h-1.162l-1.862 5.81-1.778-5.81h-1.064l-1.876 5.81-1.778-5.81h-1.204l2.31 7.14zm12.931.084c1.652 0 2.828-1.05 3.108-2.478h-1.162c-.238.924-1.022 1.456-2.03 1.456-1.358 0-2.212-.952-2.254-2.31v-.098h5.544c.014-.168.028-.336.028-.49-.056-2.114-1.372-3.388-3.388-3.388s-3.388 1.484-3.388 3.654c0 2.184 1.4 3.654 3.542 3.654zm-2.268-4.382c.112-1.162 1.078-1.918 2.128-1.918 1.19 0 2.03.686 2.142 1.918h-4.27zm10.662 4.382c1.652 0 2.828-1.05 3.108-2.478h-1.162c-.238.924-1.022 1.456-2.03 1.456-1.358 0-2.212-.952-2.254-2.31v-.098h5.544c.014-.168.028-.336.028-.49-.056-2.114-1.372-3.388-3.388-3.388s-3.388 1.484-3.388 3.654c0 2.184 1.4 3.654 3.542 3.654zm-2.268-4.382c.112-1.162 1.078-1.918 2.128-1.918 1.19 0 2.03.686 2.142 1.918h-4.27zm10.872-2.926c-1.204 0-1.932.504-2.352 1.05l-.154-.966h-.994V106h1.148v-3.57c0-1.61.812-2.604 2.156-2.604 1.246 0 1.932.784 1.932 2.268V106h1.148v-3.976c0-2.366-1.274-3.248-2.884-3.248zm15.445 6.174c-.322 0-.462-.098-.462-.476v-3.122c0-1.666-1.05-2.576-2.87-2.576-1.722 0-2.856.826-3.024 2.226h1.148c.14-.728.812-1.204 1.82-1.204 1.12 0 1.778.56 1.778 1.484v.49h-2.1c-1.876 0-2.87.798-2.87 2.226 0 1.302 1.064 2.086 2.632 2.086 1.232 0 1.946-.546 2.394-1.19.014.7.336 1.106 1.288 1.106h.63v-1.05h-.364zm-1.61-1.862c0 1.19-.826 2.016-2.254 2.016-.952 0-1.554-.476-1.554-1.176 0-.812.574-1.19 1.596-1.19h2.212v.35zM246.99 123.084c1.736 0 2.898-.98 3.178-2.52h-1.218c-.224.91-.924 1.498-1.946 1.498-1.372 0-2.296-1.064-2.296-2.618 0-1.554.924-2.646 2.296-2.646 1.05 0 1.75.574 1.96 1.526h1.204c-.294-1.568-1.4-2.548-3.15-2.548-2.072 0-3.486 1.484-3.486 3.668 0 2.226 1.372 3.64 3.458 3.64zm9.995-3.654c0 1.61-.784 2.604-2.086 2.604-1.19 0-1.862-.784-1.862-2.268v-3.906h-1.148v3.976c0 2.366 1.246 3.248 2.814 3.248 1.176 0 1.862-.504 2.282-1.036l.154.952h.994v-7.14h-1.148v3.57zm2.979 1.218c.028 1.568 1.302 2.436 3.15 2.436 1.582 0 2.856-.826 2.856-2.156 0-1.582-1.302-1.89-2.926-2.086-1.036-.126-1.792-.224-1.792-1.008 0-.658.672-1.078 1.666-1.078.98 0 1.652.546 1.736 1.274h1.176c-.112-1.484-1.288-2.24-2.912-2.254-1.61-.014-2.8.84-2.8 2.142 0 1.484 1.274 1.806 2.87 2.002 1.064.126 1.848.196 1.848 1.092 0 .658-.714 1.092-1.722 1.092-1.19 0-1.932-.616-1.974-1.456h-1.176zm8.372.49c0 1.26.49 1.862 1.862 1.862h1.246v-1.05h-1.134c-.616 0-.826-.224-.826-.826v-4.214h1.848v-1.05h-1.848v-2.002h-1.148v2.002h-1.288v1.05h1.288v4.228zm7.775 1.946c2.086 0 3.542-1.484 3.542-3.654s-1.456-3.654-3.542-3.654-3.542 1.484-3.542 3.654 1.456 3.654 3.542 3.654zm0-1.022c-1.414 0-2.366-1.106-2.366-2.632s.952-2.632 2.366-2.632c1.414 0 2.366 1.106 2.366 2.632s-.952 2.632-2.366 2.632zm13.384-6.286c-1.274 0-2.044.588-2.478 1.358-.406-.91-1.26-1.358-2.254-1.358-1.106 0-1.708.546-2.086 1.064l-.154-.98h-.994V123h1.148v-3.766c0-1.428.714-2.408 1.89-2.408 1.092 0 1.722.728 1.722 2.128V123h1.148v-3.822c0-1.456.728-2.352 1.918-2.352 1.078 0 1.694.728 1.694 2.128V123h1.148v-4.116c0-2.254-1.218-3.108-2.702-3.108zm7.943 7.308c1.652 0 2.828-1.05 3.108-2.478h-1.162c-.238.924-1.022 1.456-2.03 1.456-1.358 0-2.212-.952-2.254-2.31v-.098h5.544c.014-.168.028-.336.028-.49-.056-2.114-1.372-3.388-3.388-3.388s-3.388 1.484-3.388 3.654c0 2.184 1.4 3.654 3.542 3.654zm-2.268-4.382c.112-1.162 1.078-1.918 2.128-1.918 1.19 0 2.03.686 2.142 1.918h-4.27zm10.676-2.842c-1.274 0-1.82.532-2.156 1.078l-.154-1.078h-.994V123h1.148v-3.64c0-1.134.406-2.38 1.904-2.38h.574v-1.12h-.322zm12.415 6.09c-.322 0-.462-.098-.462-.476v-3.122c0-1.666-1.05-2.576-2.87-2.576-1.722 0-2.856.826-3.024 2.226h1.148c.14-.728.812-1.204 1.82-1.204 1.12 0 1.778.56 1.778 1.484v.49h-2.1c-1.876 0-2.87.798-2.87 2.226 0 1.302 1.064 2.086 2.632 2.086 1.232 0 1.946-.546 2.394-1.19.014.7.336 1.106 1.288 1.106h.63v-1.05h-.364zm-1.61-1.862c0 1.19-.826 2.016-2.254 2.016-.952 0-1.554-.476-1.554-1.176 0-.812.574-1.19 1.596-1.19h2.212v.35zm6.917-4.312c-1.204 0-1.932.504-2.352 1.05l-.154-.966h-.994V123h1.148v-3.57c0-1.61.812-2.604 2.156-2.604 1.246 0 1.932.784 1.932 2.268V123h1.148v-3.976c0-2.366-1.274-3.248-2.884-3.248zm10.453 1.176c-.434-.686-1.246-1.176-2.45-1.176-1.974 0-3.43 1.47-3.43 3.654 0 2.324 1.456 3.654 3.43 3.654 1.204 0 1.974-.574 2.45-1.232l.154 1.148h.994v-9.8h-1.148v3.752zm-2.338 5.11c-1.414 0-2.366-1.078-2.366-2.632s.952-2.632 2.366-2.632c1.4 0 2.352 1.092 2.352 2.66 0 1.526-.952 2.604-2.352 2.604zm16.148-.112c-.322 0-.462-.098-.462-.476v-3.122c0-1.666-1.05-2.576-2.87-2.576-1.722 0-2.856.826-3.024 2.226h1.148c.14-.728.812-1.204 1.82-1.204 1.12 0 1.778.56 1.778 1.484v.49h-2.1c-1.876 0-2.87.798-2.87 2.226 0 1.302 1.064 2.086 2.632 2.086 1.232 0 1.946-.546 2.394-1.19.014.7.336 1.106 1.288 1.106h.63v-1.05h-.364zm-1.61-1.862c0 1.19-.826 2.016-2.254 2.016-.952 0-1.554-.476-1.554-1.176 0-.812.574-1.19 1.596-1.19h2.212v.35zm11.239-4.312c-1.204 0-1.974.574-2.45 1.232l-.154-1.148h-.994v9.94h1.148v-3.892c.434.686 1.246 1.176 2.45 1.176 1.974 0 3.43-1.47 3.43-3.654 0-2.324-1.456-3.654-3.43-3.654zm-.112 6.286c-1.4 0-2.352-1.092-2.352-2.66 0-1.526.952-2.604 2.352-2.604 1.414 0 2.366 1.078 2.366 2.632s-.952 2.632-2.366 2.632zm8.704 1.022c2.086 0 3.542-1.484 3.542-3.654s-1.456-3.654-3.542-3.654-3.542 1.484-3.542 3.654 1.456 3.654 3.542 3.654zm0-1.022c-1.414 0-2.366-1.106-2.366-2.632s.952-2.632 2.366-2.632c1.414 0 2.366 1.106 2.366 2.632s-.952 2.632-2.366 2.632zm5.418.938h1.148v-9.8h-1.148v9.8zm3.869-8.344c.42 0 .742-.308.742-.742a.721.721 0 00-.742-.742.721.721 0 00-.742.742c0 .434.322.742.742.742zm-.588 8.344h1.148v-7.14h-1.148V123zm3.812-1.862c0 1.26.49 1.862 1.862 1.862h1.246v-1.05h-1.134c-.616 0-.826-.224-.826-.826v-4.214h1.848v-1.05h-1.848v-2.002h-1.148v2.002h-1.288v1.05h1.288v4.228zm7.775 1.946c1.652 0 2.828-1.05 3.108-2.478h-1.162c-.238.924-1.022 1.456-2.03 1.456-1.358 0-2.212-.952-2.254-2.31v-.098h5.544c.014-.168.028-.336.028-.49-.056-2.114-1.372-3.388-3.388-3.388s-3.388 1.484-3.388 3.654c0 2.184 1.4 3.654 3.542 3.654zm-2.268-4.382c.112-1.162 1.078-1.918 2.128-1.918 1.19 0 2.03.686 2.142 1.918h-4.27zm7.426 2.828c-.588 0-.924.35-.924.812 0 .504.322.756.742.756.168 0 .364-.056.476-.168.014.056.014.112.014.182 0 .476-.28 1.106-1.176 1.12v.658c1.232-.028 1.974-.742 1.974-1.932 0-.77-.42-1.428-1.106-1.428zm10.65-5.754c-1.204 0-1.932.588-2.352 1.26V113.2h-1.148v9.8h1.148v-3.57c0-1.61.826-2.604 2.156-2.604 1.232 0 1.946.784 1.946 2.268V123h1.148v-3.976c0-2.366-1.302-3.248-2.898-3.248zm8.13 7.308c1.652 0 2.828-1.05 3.108-2.478h-1.162c-.238.924-1.022 1.456-2.03 1.456-1.358 0-2.212-.952-2.254-2.31v-.098h5.544c.014-.168.028-.336.028-.49-.056-2.114-1.372-3.388-3.388-3.388s-3.388 1.484-3.388 3.654c0 2.184 1.4 3.654 3.542 3.654zm-2.268-4.382c.112-1.162 1.078-1.918 2.128-1.918 1.19 0 2.03.686 2.142 1.918h-4.27zM415.38 123h1.148v-9.8h-1.148v9.8zm6.878-7.224c-1.204 0-1.974.574-2.45 1.232l-.154-1.148h-.994v9.94h1.148v-3.892c.434.686 1.246 1.176 2.45 1.176 1.974 0 3.43-1.47 3.43-3.654 0-2.324-1.456-3.654-3.43-3.654zm-.112 6.286c-1.4 0-2.352-1.092-2.352-2.66 0-1.526.952-2.604 2.352-2.604 1.414 0 2.366 1.078 2.366 2.632s-.952 2.632-2.366 2.632zm4.576-5.152h1.288V123h1.148v-6.09h2.016v-1.05h-2.016v-.826c0-.546.21-.784.784-.784h1.232v-1.05h-1.302c-1.33 0-1.862.602-1.862 1.862v.798h-1.288v1.05zm10.84 2.52c0 1.61-.784 2.604-2.086 2.604-1.19 0-1.862-.784-1.862-2.268v-3.906h-1.148v3.976c0 2.366 1.246 3.248 2.814 3.248 1.176 0 1.862-.504 2.282-1.036l.154.952h.994v-7.14h-1.148v3.57zm3.273 3.57h1.148v-9.8h-1.148v9.8zm10.71.084c1.736 0 2.898-.98 3.178-2.52h-1.218c-.224.91-.924 1.498-1.946 1.498-1.372 0-2.296-1.064-2.296-2.618 0-1.554.924-2.646 2.296-2.646 1.05 0 1.75.574 1.96 1.526h1.204c-.294-1.568-1.4-2.548-3.15-2.548-2.072 0-3.486 1.484-3.486 3.668 0 2.226 1.372 3.64 3.458 3.64zm9.995-3.654c0 1.61-.784 2.604-2.086 2.604-1.19 0-1.862-.784-1.862-2.268v-3.906h-1.148v3.976c0 2.366 1.246 3.248 2.814 3.248 1.176 0 1.862-.504 2.282-1.036l.154.952h.994v-7.14h-1.148v3.57zm2.979 1.218c.028 1.568 1.302 2.436 3.15 2.436 1.582 0 2.856-.826 2.856-2.156 0-1.582-1.302-1.89-2.926-2.086-1.036-.126-1.792-.224-1.792-1.008 0-.658.672-1.078 1.666-1.078.98 0 1.652.546 1.736 1.274h1.176c-.112-1.484-1.288-2.24-2.912-2.254-1.61-.014-2.8.84-2.8 2.142 0 1.484 1.274 1.806 2.87 2.002 1.064.126 1.848.196 1.848 1.092 0 .658-.714 1.092-1.722 1.092-1.19 0-1.932-.616-1.974-1.456h-1.176zm8.372.49c0 1.26.49 1.862 1.862 1.862h1.246v-1.05h-1.134c-.616 0-.826-.224-.826-.826v-4.214h1.848v-1.05h-1.848v-2.002h-1.148v2.002h-1.288v1.05h1.288v4.228zm7.775 1.946c2.086 0 3.542-1.484 3.542-3.654s-1.456-3.654-3.542-3.654-3.542 1.484-3.542 3.654 1.456 3.654 3.542 3.654zm0-1.022c-1.414 0-2.366-1.106-2.366-2.632s.952-2.632 2.366-2.632c1.414 0 2.366 1.106 2.366 2.632s-.952 2.632-2.366 2.632zm13.385-6.286c-1.274 0-2.044.588-2.478 1.358-.406-.91-1.26-1.358-2.254-1.358-1.106 0-1.708.546-2.086 1.064l-.154-.98h-.994V123h1.148v-3.766c0-1.428.714-2.408 1.89-2.408 1.092 0 1.722.728 1.722 2.128V123h1.148v-3.822c0-1.456.728-2.352 1.918-2.352 1.078 0 1.694.728 1.694 2.128V123h1.148v-4.116c0-2.254-1.218-3.108-2.702-3.108zm7.942 7.308c1.652 0 2.828-1.05 3.108-2.478h-1.162c-.238.924-1.022 1.456-2.03 1.456-1.358 0-2.212-.952-2.254-2.31v-.098h5.544c.014-.168.028-.336.028-.49-.056-2.114-1.372-3.388-3.388-3.388s-3.388 1.484-3.388 3.654c0 2.184 1.4 3.654 3.542 3.654zm-2.268-4.382c.112-1.162 1.078-1.918 2.128-1.918 1.19 0 2.03.686 2.142 1.918h-4.27zm10.676-2.842c-1.274 0-1.82.532-2.156 1.078l-.154-1.078h-.994V123h1.148v-3.64c0-1.134.406-2.38 1.904-2.38h.574v-1.12h-.322zM243.49 137.648c.028 1.568 1.302 2.436 3.15 2.436 1.582 0 2.856-.826 2.856-2.156 0-1.582-1.302-1.89-2.926-2.086-1.036-.126-1.792-.224-1.792-1.008 0-.658.672-1.078 1.666-1.078.98 0 1.652.546 1.736 1.274h1.176c-.112-1.484-1.288-2.24-2.912-2.254-1.61-.014-2.8.84-2.8 2.142 0 1.484 1.274 1.806 2.87 2.002 1.064.126 1.848.196 1.848 1.092 0 .658-.714 1.092-1.722 1.092-1.19 0-1.932-.616-1.974-1.456h-1.176zm11.13 2.436c1.652 0 2.828-1.05 3.108-2.478h-1.162c-.238.924-1.022 1.456-2.03 1.456-1.358 0-2.212-.952-2.254-2.31v-.098h5.544c.014-.168.028-.336.028-.49-.056-2.114-1.372-3.388-3.388-3.388s-3.388 1.484-3.388 3.654c0 2.184 1.4 3.654 3.542 3.654zm-2.268-4.382c.112-1.162 1.078-1.918 2.128-1.918 1.19 0 2.03.686 2.142 1.918h-4.27zm10.676-2.842c-1.274 0-1.82.532-2.156 1.078l-.154-1.078h-.994V140h1.148v-3.64c0-1.134.406-2.38 1.904-2.38h.574v-1.12h-.322zm3.974 7.14h1.386l2.674-7.14h-1.204l-2.142 5.838-2.156-5.838h-1.232l2.674 7.14zm6.065-8.344c.42 0 .742-.308.742-.742a.721.721 0 00-.742-.742.721.721 0 00-.742.742c0 .434.322.742.742.742zm-.588 8.344h1.148v-7.14h-1.148V140zm6.487.084c1.736 0 2.898-.98 3.178-2.52h-1.218c-.224.91-.924 1.498-1.946 1.498-1.372 0-2.296-1.064-2.296-2.618 0-1.554.924-2.646 2.296-2.646 1.05 0 1.75.574 1.96 1.526h1.204c-.294-1.568-1.4-2.548-3.15-2.548-2.072 0-3.486 1.484-3.486 3.668 0 2.226 1.372 3.64 3.458 3.64zm8.286 0c1.652 0 2.828-1.05 3.108-2.478h-1.162c-.238.924-1.022 1.456-2.03 1.456-1.358 0-2.212-.952-2.254-2.31v-.098h5.544c.014-.168.028-.336.028-.49-.056-2.114-1.372-3.388-3.388-3.388s-3.388 1.484-3.388 3.654c0 2.184 1.4 3.654 3.542 3.654zm-2.268-4.382c.112-1.162 1.078-1.918 2.128-1.918 1.19 0 2.03.686 2.142 1.918h-4.27zm17.91 3.248c-.322 0-.462-.098-.462-.476v-3.122c0-1.666-1.05-2.576-2.87-2.576-1.722 0-2.856.826-3.024 2.226h1.148c.14-.728.812-1.204 1.82-1.204 1.12 0 1.778.56 1.778 1.484v.49h-2.1c-1.876 0-2.87.798-2.87 2.226 0 1.302 1.064 2.086 2.632 2.086 1.232 0 1.946-.546 2.394-1.19.014.7.336 1.106 1.288 1.106h.63v-1.05h-.364zm-1.61-1.862c0 1.19-.826 2.016-2.254 2.016-.952 0-1.554-.476-1.554-1.176 0-.812.574-1.19 1.596-1.19h2.212v.35zm9.045-2.996c-.448-.798-1.246-1.316-2.45-1.316-1.974 0-3.43 1.47-3.43 3.654 0 2.324 1.456 3.654 3.43 3.654 1.204 0 1.974-.504 2.45-1.316v.84c0 1.554-.812 2.254-2.31 2.254-1.19 0-1.988-.504-2.184-1.4h-1.176c.182 1.568 1.456 2.422 3.276 2.422 2.45 0 3.542-1.176 3.542-3.234v-6.79h-.994l-.154 1.232zm-2.338 4.97c-1.414 0-2.366-1.078-2.366-2.632s.952-2.632 2.366-2.632c1.4 0 2.352 1.092 2.352 2.66 0 1.526-.952 2.604-2.352 2.604zm8.9 1.022c1.652 0 2.828-1.05 3.108-2.478h-1.162c-.238.924-1.022 1.456-2.03 1.456-1.358 0-2.212-.952-2.254-2.31v-.098h5.544c.014-.168.028-.336.028-.49-.056-2.114-1.372-3.388-3.388-3.388s-3.388 1.484-3.388 3.654c0 2.184 1.4 3.654 3.542 3.654zm-2.268-4.382c.112-1.162 1.078-1.918 2.128-1.918 1.19 0 2.03.686 2.142 1.918h-4.27zm10.872-2.926c-1.204 0-1.932.504-2.352 1.05l-.154-.966h-.994V140h1.148v-3.57c0-1.61.812-2.604 2.156-2.604 1.246 0 1.932.784 1.932 2.268V140h1.148v-3.976c0-2.366-1.274-3.248-2.884-3.248zm8.031 7.308c1.736 0 2.898-.98 3.178-2.52h-1.218c-.224.91-.924 1.498-1.946 1.498-1.372 0-2.296-1.064-2.296-2.618 0-1.554.924-2.646 2.296-2.646 1.05 0 1.75.574 1.96 1.526h1.204c-.294-1.568-1.4-2.548-3.15-2.548-2.072 0-3.486 1.484-3.486 3.668 0 2.226 1.372 3.64 3.458 3.64zm6.864-.042l-.35.868c-.266.672-.378.84-1.036.84h-1.022v1.05h1.372c1.008 0 1.274-.448 1.722-1.596l3.29-8.344h-1.218l-2.128 5.698-2.198-5.698h-1.218l2.786 7.182zm4.582-.742c0 .476.336.784.798.784s.798-.308.798-.784c0-.476-.336-.784-.798-.784s-.798.308-.798.784zM243.952 229h1.218v-3.766h2.464l2.072 3.766h1.372l-2.198-4.004c1.26-.35 2.086-1.414 2.086-2.786 0-1.834-1.302-3.01-3.262-3.01h-3.752v9.8zm3.668-8.68c1.274 0 2.1.742 2.1 1.89s-.826 1.904-2.114 1.904h-2.436v-3.794h2.45zm8.203 8.764c1.652 0 2.828-1.05 3.108-2.478h-1.162c-.238.924-1.022 1.456-2.03 1.456-1.358 0-2.212-.952-2.254-2.31v-.098h5.544c.014-.168.028-.336.028-.49-.056-2.114-1.372-3.388-3.388-3.388s-3.388 1.484-3.388 3.654c0 2.184 1.4 3.654 3.542 3.654zm-2.268-4.382c.112-1.162 1.078-1.918 2.128-1.918 1.19 0 2.03.686 2.142 1.918h-4.27zm7.051 1.946c.028 1.568 1.302 2.436 3.15 2.436 1.582 0 2.856-.826 2.856-2.156 0-1.582-1.302-1.89-2.926-2.086-1.036-.126-1.792-.224-1.792-1.008 0-.658.672-1.078 1.666-1.078.98 0 1.652.546 1.736 1.274h1.176c-.112-1.484-1.288-2.24-2.912-2.254-1.61-.014-2.8.84-2.8 2.142 0 1.484 1.274 1.806 2.87 2.002 1.064.126 1.848.196 1.848 1.092 0 .658-.714 1.092-1.722 1.092-1.19 0-1.932-.616-1.974-1.456h-1.176zm11.438-4.872c-1.204 0-1.974.574-2.45 1.232l-.154-1.148h-.994v9.94h1.148v-3.892c.434.686 1.246 1.176 2.45 1.176 1.974 0 3.43-1.47 3.43-3.654 0-2.324-1.456-3.654-3.43-3.654zm-.112 6.286c-1.4 0-2.352-1.092-2.352-2.66 0-1.526.952-2.604 2.352-2.604 1.414 0 2.366 1.078 2.366 2.632s-.952 2.632-2.366 2.632zm8.704 1.022c2.086 0 3.542-1.484 3.542-3.654s-1.456-3.654-3.542-3.654-3.542 1.484-3.542 3.654 1.456 3.654 3.542 3.654zm0-1.022c-1.414 0-2.366-1.106-2.366-2.632s.952-2.632 2.366-2.632c1.414 0 2.366 1.106 2.366 2.632s-.952 2.632-2.366 2.632zm8.919-6.286c-1.204 0-1.932.504-2.352 1.05l-.154-.966h-.994V229h1.148v-3.57c0-1.61.812-2.604 2.156-2.604 1.246 0 1.932.784 1.932 2.268V229h1.148v-3.976c0-2.366-1.274-3.248-2.884-3.248zm4.613 4.872c.028 1.568 1.302 2.436 3.15 2.436 1.582 0 2.856-.826 2.856-2.156 0-1.582-1.302-1.89-2.926-2.086-1.036-.126-1.792-.224-1.792-1.008 0-.658.672-1.078 1.666-1.078.98 0 1.652.546 1.736 1.274h1.176c-.112-1.484-1.288-2.24-2.912-2.254-1.61-.014-2.8.84-2.8 2.142 0 1.484 1.274 1.806 2.87 2.002 1.064.126 1.848.196 1.848 1.092 0 .658-.714 1.092-1.722 1.092-1.19 0-1.932-.616-1.974-1.456h-1.176zm11.131 2.436c1.652 0 2.828-1.05 3.108-2.478h-1.162c-.238.924-1.022 1.456-2.03 1.456-1.358 0-2.212-.952-2.254-2.31v-.098h5.544c.014-.168.028-.336.028-.49-.056-2.114-1.372-3.388-3.388-3.388s-3.388 1.484-3.388 3.654c0 2.184 1.4 3.654 3.542 3.654zm-2.268-4.382c.112-1.162 1.078-1.918 2.128-1.918 1.19 0 2.03.686 2.142 1.918h-4.27zm10.84-1.792h1.288V229h1.148v-6.09h2.016v-1.05h-2.016v-.826c0-.546.21-.784.784-.784h1.232v-1.05h-1.302c-1.33 0-1.862.602-1.862 1.862v.798h-1.288v1.05zm9.145-1.05c-1.274 0-1.82.532-2.156 1.078l-.154-1.078h-.994V229h1.148v-3.64c0-1.134.406-2.38 1.904-2.38h.574v-1.12h-.322zm4.757 7.224c2.086 0 3.542-1.484 3.542-3.654s-1.456-3.654-3.542-3.654-3.542 1.484-3.542 3.654 1.456 3.654 3.542 3.654zm0-1.022c-1.414 0-2.366-1.106-2.366-2.632s.952-2.632 2.366-2.632c1.414 0 2.366 1.106 2.366 2.632s-.952 2.632-2.366 2.632zm13.385-6.286c-1.274 0-2.044.588-2.478 1.358-.406-.91-1.26-1.358-2.254-1.358-1.106 0-1.708.546-2.086 1.064l-.154-.98h-.994V229h1.148v-3.766c0-1.428.714-2.408 1.89-2.408 1.092 0 1.722.728 1.722 2.128V229h1.148v-3.822c0-1.456.728-2.352 1.918-2.352 1.078 0 1.694.728 1.694 2.128V229h1.148v-4.116c0-2.254-1.218-3.108-2.702-3.108zm12.164 7.308c1.736 0 2.898-.98 3.178-2.52h-1.218c-.224.91-.924 1.498-1.946 1.498-1.372 0-2.296-1.064-2.296-2.618 0-1.554.924-2.646 2.296-2.646 1.05 0 1.75.574 1.96 1.526h1.204c-.294-1.568-1.4-2.548-3.15-2.548-2.072 0-3.486 1.484-3.486 3.668 0 2.226 1.372 3.64 3.458 3.64zm9.995-3.654c0 1.61-.784 2.604-2.086 2.604-1.19 0-1.862-.784-1.862-2.268v-3.906h-1.148v3.976c0 2.366 1.246 3.248 2.814 3.248 1.176 0 1.862-.504 2.282-1.036l.154.952h.994v-7.14h-1.148v3.57zm2.979 1.218c.028 1.568 1.302 2.436 3.15 2.436 1.582 0 2.856-.826 2.856-2.156 0-1.582-1.302-1.89-2.926-2.086-1.036-.126-1.792-.224-1.792-1.008 0-.658.672-1.078 1.666-1.078.98 0 1.652.546 1.736 1.274h1.176c-.112-1.484-1.288-2.24-2.912-2.254-1.61-.014-2.8.84-2.8 2.142 0 1.484 1.274 1.806 2.87 2.002 1.064.126 1.848.196 1.848 1.092 0 .658-.714 1.092-1.722 1.092-1.19 0-1.932-.616-1.974-1.456h-1.176zm8.372.49c0 1.26.49 1.862 1.862 1.862h1.246v-1.05h-1.134c-.616 0-.826-.224-.826-.826v-4.214h1.848v-1.05h-1.848v-2.002h-1.148v2.002h-1.288v1.05h1.288v4.228zm7.775 1.946c2.086 0 3.542-1.484 3.542-3.654s-1.456-3.654-3.542-3.654-3.542 1.484-3.542 3.654 1.456 3.654 3.542 3.654zm0-1.022c-1.414 0-2.366-1.106-2.366-2.632s.952-2.632 2.366-2.632c1.414 0 2.366 1.106 2.366 2.632s-.952 2.632-2.366 2.632zm13.384-6.286c-1.274 0-2.044.588-2.478 1.358-.406-.91-1.26-1.358-2.254-1.358-1.106 0-1.708.546-2.086 1.064l-.154-.98h-.994V229h1.148v-3.766c0-1.428.714-2.408 1.89-2.408 1.092 0 1.722.728 1.722 2.128V229h1.148v-3.822c0-1.456.728-2.352 1.918-2.352 1.078 0 1.695.728 1.695 2.128V229h1.147v-4.116c0-2.254-1.218-3.108-2.702-3.108zm7.943 7.308c1.652 0 2.828-1.05 3.108-2.478h-1.162c-.238.924-1.022 1.456-2.03 1.456-1.358 0-2.212-.952-2.254-2.31v-.098h5.544c.014-.168.028-.336.028-.49-.056-2.114-1.372-3.388-3.388-3.388s-3.388 1.484-3.388 3.654c0 2.184 1.4 3.654 3.542 3.654zm-2.268-4.382c.112-1.162 1.078-1.918 2.128-1.918 1.19 0 2.03.686 2.142 1.918h-4.27zm10.676-2.842c-1.274 0-1.82.532-2.156 1.078l-.154-1.078h-.994V229h1.148v-3.64c0-1.134.406-2.38 1.904-2.38h.574v-1.12h-.322zm5.807 4.788c.028 1.568 1.302 2.436 3.15 2.436 1.582 0 2.856-.826 2.856-2.156 0-1.582-1.302-1.89-2.926-2.086-1.036-.126-1.792-.224-1.792-1.008 0-.658.672-1.078 1.666-1.078.98 0 1.652.546 1.736 1.274h1.176c-.112-1.484-1.288-2.24-2.912-2.254-1.61-.014-2.8.84-2.8 2.142 0 1.484 1.274 1.806 2.87 2.002 1.064.126 1.848.196 1.848 1.092 0 .658-.714 1.092-1.722 1.092-1.19 0-1.932-.616-1.974-1.456h-1.176zm11.131 2.436c1.652 0 2.828-1.05 3.108-2.478h-1.162c-.238.924-1.022 1.456-2.03 1.456-1.358 0-2.212-.952-2.254-2.31v-.098h5.544c.014-.168.028-.336.028-.49-.056-2.114-1.372-3.388-3.388-3.388s-3.388 1.484-3.388 3.654c0 2.184 1.4 3.654 3.542 3.654zm-2.268-4.382c.112-1.162 1.078-1.918 2.128-1.918 1.19 0 2.03.686 2.142 1.918h-4.27zm10.676-2.842c-1.274 0-1.82.532-2.156 1.078l-.154-1.078h-.994V229h1.148v-3.64c0-1.134.406-2.38 1.904-2.38h.574v-1.12h-.322zm3.973 7.14h1.386l2.674-7.14h-1.204l-2.142 5.838-2.156-5.838h-1.232l2.674 7.14zm6.065-8.344c.42 0 .742-.308.742-.742a.721.721 0 00-.742-.742.721.721 0 00-.742.742c0 .434.322.742.742.742zm-.588 8.344h1.148v-7.14h-1.148V229zm6.487.084c1.736 0 2.898-.98 3.178-2.52h-1.218c-.224.91-.924 1.498-1.946 1.498-1.372 0-2.296-1.064-2.296-2.618 0-1.554.924-2.646 2.296-2.646 1.05 0 1.75.574 1.96 1.526h1.204c-.294-1.568-1.4-2.548-3.15-2.548-2.072 0-3.486 1.484-3.486 3.668 0 2.226 1.372 3.64 3.458 3.64zm8.287 0c1.652 0 2.828-1.05 3.108-2.478h-1.162c-.238.924-1.022 1.456-2.03 1.456-1.358 0-2.212-.952-2.254-2.31v-.098h5.544c.014-.168.028-.336.028-.49-.056-2.114-1.372-3.388-3.388-3.388s-3.388 1.484-3.388 3.654c0 2.184 1.4 3.654 3.542 3.654zm-2.268-4.382c.112-1.162 1.078-1.918 2.128-1.918 1.19 0 2.03.686 2.142 1.918h-4.27zm17.91 3.248c-.322 0-.462-.098-.462-.476v-3.122c0-1.666-1.05-2.576-2.87-2.576-1.722 0-2.856.826-3.024 2.226h1.148c.14-.728.812-1.204 1.82-1.204 1.12 0 1.778.56 1.778 1.484v.49h-2.1c-1.876 0-2.87.798-2.87 2.226 0 1.302 1.064 2.086 2.632 2.086 1.232 0 1.946-.546 2.394-1.19.014.7.336 1.106 1.288 1.106h.63v-1.05h-.364zm-1.61-1.862c0 1.19-.826 2.016-2.254 2.016-.952 0-1.554-.476-1.554-1.176 0-.812.574-1.19 1.596-1.19h2.212v.35zm9.044-2.996c-.448-.798-1.246-1.316-2.45-1.316-1.974 0-3.43 1.47-3.43 3.654 0 2.324 1.456 3.654 3.43 3.654 1.204 0 1.974-.504 2.45-1.316v.84c0 1.554-.812 2.254-2.31 2.254-1.19 0-1.988-.504-2.184-1.4h-1.176c.182 1.568 1.456 2.422 3.276 2.422 2.45 0 3.542-1.176 3.542-3.234v-6.79h-.994l-.154 1.232zm-2.338 4.97c-1.414 0-2.366-1.078-2.366-2.632s.952-2.632 2.366-2.632c1.4 0 2.352 1.092 2.352 2.66 0 1.526-.952 2.604-2.352 2.604zm8.9 1.022c1.652 0 2.828-1.05 3.108-2.478h-1.162c-.238.924-1.022 1.456-2.03 1.456-1.358 0-2.212-.952-2.254-2.31v-.098h5.544c.014-.168.028-.336.028-.49-.056-2.114-1.372-3.388-3.388-3.388s-3.388 1.484-3.388 3.654c0 2.184 1.4 3.654 3.542 3.654zm-2.268-4.382c.112-1.162 1.078-1.918 2.128-1.918 1.19 0 2.03.686 2.142 1.918h-4.27zm10.872-2.926c-1.204 0-1.932.504-2.352 1.05l-.154-.966h-.994V229h1.148v-3.57c0-1.61.812-2.604 2.156-2.604 1.246 0 1.932.784 1.932 2.268V229h1.148v-3.976c0-2.366-1.274-3.248-2.884-3.248zm5.44 5.362c0 1.26.49 1.862 1.862 1.862h1.246v-1.05h-1.134c-.616 0-.826-.224-.826-.826v-4.214h1.848v-1.05h-1.848v-2.002h-1.148v2.002h-1.288v1.05h1.288v4.228zm4.522-4.088c0 .476.336.784.798.784s.798-.308.798-.784c0-.476-.336-.784-.798-.784s-.798.308-.798.784zm0 5.25c0 .476.336.784.798.784s.798-.308.798-.784c0-.476-.336-.784-.798-.784s-.798.308-.798.784zm-266 17.7h1.218v-4.424h5.068V246h1.218v-9.8h-1.218v4.256h-5.068V236.2h-1.218v9.8zm13.088.084c1.652 0 2.828-1.05 3.108-2.478h-1.162c-.238.924-1.022 1.456-2.03 1.456-1.358 0-2.212-.952-2.254-2.31v-.098h5.544c.014-.168.028-.336.028-.49-.056-2.114-1.372-3.388-3.388-3.388s-3.388 1.484-3.388 3.654c0 2.184 1.4 3.654 3.542 3.654zm-2.268-4.382c.112-1.162 1.078-1.918 2.128-1.918 1.19 0 2.03.686 2.142 1.918h-4.27zm7.372 4.298h1.148v-9.8h-1.148v9.8zm3.281 0h1.148v-9.8h-1.148v9.8zm6.571.084c2.086 0 3.542-1.484 3.542-3.654s-1.456-3.654-3.542-3.654-3.542 1.484-3.542 3.654 1.456 3.654 3.542 3.654zm0-1.022c-1.414 0-2.366-1.106-2.366-2.632s.952-2.632 2.366-2.632c1.414 0 2.366 1.106 2.366 2.632s-.952 2.632-2.366 2.632zm5.471-.532c-.588 0-.924.35-.924.812 0 .504.322.756.742.756.168 0 .364-.056.476-.168a.74.74 0 01.014.182c0 .476-.28 1.106-1.176 1.12v.658c1.232-.028 1.974-.742 1.974-1.932 0-.77-.42-1.428-1.106-1.428zm6.647-7.21h3.178V246h1.218v-8.68h3.178v-1.12h-7.574v1.12zm12.699 1.456c-1.204 0-1.932.588-2.352 1.26V236.2h-1.148v9.8h1.148v-3.57c0-1.61.826-2.604 2.156-2.604 1.232 0 1.946.784 1.946 2.268V246h1.148v-3.976c0-2.366-1.302-3.248-2.898-3.248zm11.235 6.174c-.322 0-.462-.098-.462-.476v-3.122c0-1.666-1.05-2.576-2.87-2.576-1.722 0-2.856.826-3.024 2.226h1.148c.14-.728.812-1.204 1.82-1.204 1.12 0 1.778.56 1.778 1.484v.49h-2.1c-1.876 0-2.87.798-2.87 2.226 0 1.302 1.064 2.086 2.632 2.086 1.232 0 1.946-.546 2.394-1.19.014.7.336 1.106 1.288 1.106h.63v-1.05h-.364zm-1.61-1.862c0 1.19-.826 2.016-2.254 2.016-.952 0-1.554-.476-1.554-1.176 0-.812.574-1.19 1.596-1.19h2.212v.35zm6.917-4.312c-1.204 0-1.932.504-2.352 1.05l-.154-.966h-.994V246h1.148v-3.57c0-1.61.812-2.604 2.156-2.604 1.246 0 1.932.784 1.932 2.268V246h1.148v-3.976c0-2.366-1.274-3.248-2.884-3.248zm4.907 7.224h1.148v-1.876l1.442-1.484 2.366 3.36h1.386l-2.982-4.186 2.786-2.954h-1.414l-3.584 3.794V236.2h-1.148v9.8zm14.007.042l-.35.868c-.266.672-.378.84-1.036.84h-1.022v1.05h1.372c1.008 0 1.274-.448 1.722-1.596l3.29-8.344h-1.218l-2.128 5.698-2.198-5.698h-1.218l2.786 7.182zm8.368.042c2.086 0 3.542-1.484 3.542-3.654s-1.456-3.654-3.542-3.654-3.542 1.484-3.542 3.654 1.456 3.654 3.542 3.654zm0-1.022c-1.414 0-2.366-1.106-2.366-2.632s.952-2.632 2.366-2.632c1.414 0 2.366 1.106 2.366 2.632s-.952 2.632-2.366 2.632zm10.416-2.632c0 1.61-.784 2.604-2.086 2.604-1.19 0-1.862-.784-1.862-2.268v-3.906h-1.148v3.976c0 2.366 1.246 3.248 2.814 3.248 1.176 0 1.862-.504 2.282-1.036l.154.952h.994v-7.14h-1.148v3.57zm6.741-2.52h1.288V246h1.148v-6.09h2.016v-1.05h-2.016v-.826c0-.546.21-.784.784-.784h1.232v-1.05h-1.302c-1.33 0-1.862.602-1.862 1.862v.798h-1.288v1.05zm8.803 6.174c2.086 0 3.542-1.484 3.542-3.654s-1.456-3.654-3.542-3.654-3.542 1.484-3.542 3.654 1.456 3.654 3.542 3.654zm0-1.022c-1.414 0-2.366-1.106-2.366-2.632s.952-2.632 2.366-2.632c1.414 0 2.366 1.106 2.366 2.632s-.952 2.632-2.366 2.632zm8.723-6.202c-1.274 0-1.82.532-2.156 1.078l-.154-1.078h-.994V246h1.148v-3.64c0-1.134.406-2.38 1.904-2.38h.574v-1.12h-.322zm9.405 0c-1.274 0-1.82.532-2.156 1.078l-.154-1.078h-.994V246h1.148v-3.64c0-1.134.406-2.38 1.904-2.38h.574v-1.12h-.322zm4.757 7.224c1.652 0 2.828-1.05 3.108-2.478h-1.162c-.238.924-1.022 1.456-2.03 1.456-1.358 0-2.212-.952-2.254-2.31v-.098h5.544c.014-.168.028-.336.028-.49-.056-2.114-1.372-3.388-3.388-3.388s-3.388 1.484-3.388 3.654c0 2.184 1.4 3.654 3.542 3.654zm-2.268-4.382c.112-1.162 1.078-1.918 2.128-1.918 1.19 0 2.03.686 2.142 1.918h-4.27zm13.686 3.248c-.322 0-.462-.098-.462-.476v-3.122c0-1.666-1.05-2.576-2.87-2.576-1.722 0-2.856.826-3.024 2.226h1.148c.14-.728.812-1.204 1.82-1.204 1.12 0 1.778.56 1.778 1.484v.49h-2.1c-1.876 0-2.87.798-2.87 2.226 0 1.302 1.064 2.086 2.632 2.086 1.232 0 1.946-.546 2.394-1.19.014.7.336 1.106 1.288 1.106h.63v-1.05h-.364zm-1.61-1.862c0 1.19-.826 2.016-2.254 2.016-.952 0-1.554-.476-1.554-1.176 0-.812.574-1.19 1.596-1.19h2.212v.35zm6.54 2.996c1.736 0 2.898-.98 3.178-2.52h-1.218c-.224.91-.924 1.498-1.946 1.498-1.372 0-2.296-1.064-2.296-2.618 0-1.554.924-2.646 2.296-2.646 1.05 0 1.75.574 1.96 1.526h1.204c-.294-1.568-1.4-2.548-3.15-2.548-2.072 0-3.486 1.484-3.486 3.668 0 2.226 1.372 3.64 3.458 3.64zm8.497-7.308c-1.204 0-1.932.588-2.352 1.26V236.2h-1.148v9.8h1.148v-3.57c0-1.61.826-2.604 2.156-2.604 1.232 0 1.946.784 1.946 2.268V246h1.148v-3.976c0-2.366-1.302-3.248-2.898-3.248zm5.509-1.12c.42 0 .742-.308.742-.742a.721.721 0 00-.742-.742.721.721 0 00-.742.742c0 .434.322.742.742.742zm-.588 8.344h1.148v-7.14h-1.148V246zm6.781-7.224c-1.204 0-1.932.504-2.352 1.05l-.154-.966h-.994V246h1.148v-3.57c0-1.61.812-2.604 2.156-2.604 1.246 0 1.932.784 1.932 2.268V246h1.148v-3.976c0-2.366-1.274-3.248-2.884-3.248zm10.536 1.316c-.448-.798-1.246-1.316-2.45-1.316-1.974 0-3.43 1.47-3.43 3.654 0 2.324 1.456 3.654 3.43 3.654 1.204 0 1.974-.504 2.45-1.316v.84c0 1.554-.812 2.254-2.31 2.254-1.19 0-1.988-.504-2.184-1.4h-1.176c.182 1.568 1.456 2.422 3.276 2.422 2.45 0 3.542-1.176 3.542-3.234v-6.79h-.994l-.154 1.232zm-2.338 4.97c-1.414 0-2.366-1.078-2.366-2.632s.952-2.632 2.366-2.632c1.4 0 2.352 1.092 2.352 2.66 0 1.526-.952 2.604-2.352 2.604zm13.124 1.022c2.086 0 3.542-1.484 3.542-3.654s-1.456-3.654-3.542-3.654-3.542 1.484-3.542 3.654 1.456 3.654 3.542 3.654zm0-1.022c-1.414 0-2.366-1.106-2.366-2.632s.952-2.632 2.366-2.632c1.414 0 2.366 1.106 2.366 2.632s-.952 2.632-2.366 2.632zm10.416-2.632c0 1.61-.784 2.604-2.086 2.604-1.19 0-1.862-.784-1.862-2.268v-3.906h-1.148v3.976c0 2.366 1.246 3.248 2.814 3.248 1.176 0 1.862-.504 2.282-1.036l.154.952h.994v-7.14h-1.148v3.57zm3.832 1.708c0 1.26.49 1.862 1.862 1.862h1.246v-1.05h-1.134c-.616 0-.826-.224-.826-.826v-4.214h1.848v-1.05h-1.848v-2.002h-1.148v2.002h-1.288v1.05h1.288v4.228zm9.419 0c0 1.26.49 1.862 1.862 1.862h1.246v-1.05h-1.134c-.616 0-.826-.224-.826-.826v-4.214h1.848v-1.05h-1.848v-2.002h-1.148v2.002h-1.288v1.05h1.288v4.228zm7.775 1.946c2.086 0 3.542-1.484 3.542-3.654s-1.456-3.654-3.542-3.654-3.542 1.484-3.542 3.654 1.456 3.654 3.542 3.654zm0-1.022c-1.414 0-2.366-1.106-2.366-2.632s.952-2.632 2.366-2.632c1.414 0 2.366 1.106 2.366 2.632s-.952 2.632-2.366 2.632zm14.641-2.632c0 1.61-.784 2.604-2.086 2.604-1.19 0-1.862-.784-1.862-2.268v-3.906h-1.148v3.976c0 2.366 1.246 3.248 2.814 3.248 1.176 0 1.862-.504 2.282-1.036l.154.952h.994v-7.14h-1.148v3.57zm2.979 1.218c.028 1.568 1.302 2.436 3.15 2.436 1.582 0 2.856-.826 2.856-2.156 0-1.582-1.302-1.89-2.926-2.086-1.036-.126-1.792-.224-1.792-1.008 0-.658.672-1.078 1.666-1.078.98 0 1.652.546 1.736 1.274h1.176c-.112-1.484-1.288-2.24-2.912-2.254-1.61-.014-2.8.84-2.8 2.142 0 1.484 1.274 1.806 2.87 2.002 1.064.126 1.848.196 1.848 1.092 0 .658-.714 1.092-1.722 1.092-1.19 0-1.932-.616-1.974-1.456h-1.176zm7.591 1.652c0 .476.336.784.798.784s.798-.308.798-.784c0-.476-.336-.784-.798-.784s-.798.308-.798.784zM244.414 263l1.036-2.646h4.27l1.036 2.646h1.302l-3.724-9.8h-1.442l-3.738 9.8h1.26zm3.164-8.47l1.778 4.718h-3.542l1.764-4.718zm5.841 2.52c0 .476.336.784.798.784s.798-.308.798-.784c0-.476-.336-.784-.798-.784s-.798.308-.798.784zm0 5.25c0 .476.336.784.798.784s.798-.308.798-.784c0-.476-.336-.784-.798-.784s-.798.308-.798.784zm10.847-2.926V263h1.218v-3.626l3.696-6.174h-1.372l-2.926 4.858-2.884-4.858h-1.428l3.696 6.174zm8.454 3.71c1.652 0 2.828-1.05 3.108-2.478h-1.162c-.238.924-1.022 1.456-2.03 1.456-1.358 0-2.212-.952-2.254-2.31v-.098h5.544c.014-.168.028-.336.028-.49-.056-2.114-1.372-3.388-3.388-3.388s-3.388 1.484-3.388 3.654c0 2.184 1.4 3.654 3.542 3.654zm-2.268-4.382c.112-1.162 1.078-1.918 2.128-1.918 1.19 0 2.03.686 2.142 1.918h-4.27zm7.051 1.946c.028 1.568 1.302 2.436 3.15 2.436 1.582 0 2.856-.826 2.856-2.156 0-1.582-1.302-1.89-2.926-2.086-1.036-.126-1.792-.224-1.792-1.008 0-.658.672-1.078 1.666-1.078.98 0 1.652.546 1.736 1.274h1.176c-.112-1.484-1.288-2.24-2.912-2.254-1.61-.014-2.8.84-2.8 2.142 0 1.484 1.274 1.806 2.87 2.002 1.064.126 1.848.196 1.848 1.092 0 .658-.714 1.092-1.722 1.092-1.19 0-1.932-.616-1.974-1.456h-1.176zm8.249.882c-.588 0-.924.35-.924.812 0 .504.322.756.742.756.168 0 .364-.056.476-.168.014.056.014.112.014.182 0 .476-.28 1.106-1.176 1.12v.658c1.232-.028 1.974-.742 1.974-1.932 0-.77-.42-1.428-1.106-1.428zM252.786 168.88c-.42 0-.658-.126-.924-.476.686-.868 1.078-2.002 1.078-3.304 0-2.884-1.918-4.984-4.676-4.984s-4.676 2.1-4.676 4.984 1.918 4.984 4.676 4.984c1.078 0 2.044-.322 2.8-.896l.098.14c.35.476.742.672 1.484.672h.896v-1.12h-.756zm-4.522.084c-2.044 0-3.43-1.61-3.43-3.864 0-2.254 1.386-3.864 3.43-3.864 2.044 0 3.43 1.61 3.43 3.864 0 .868-.21 1.652-.588 2.268l-.308-.42c-.35-.476-.7-.686-1.358-.686h-1.022v1.12h.826c.35 0 .588.14.854.49l.266.364c-.56.462-1.274.728-2.1.728zm11.66-2.534c0 1.61-.784 2.604-2.086 2.604-1.19 0-1.862-.784-1.862-2.268v-3.906h-1.148v3.976c0 2.366 1.246 3.248 2.814 3.248 1.176 0 1.862-.504 2.282-1.036l.154.952h.994v-7.14h-1.148v3.57zm6.563 3.654c1.652 0 2.828-1.05 3.108-2.478h-1.162c-.238.924-1.022 1.456-2.03 1.456-1.358 0-2.212-.952-2.254-2.31v-.098h5.544c.014-.168.028-.336.028-.49-.056-2.114-1.372-3.388-3.388-3.388s-3.388 1.484-3.388 3.654c0 2.184 1.4 3.654 3.542 3.654zm-2.268-4.382c.112-1.162 1.078-1.918 2.128-1.918 1.19 0 2.03.686 2.142 1.918h-4.27zm7.051 1.946c.028 1.568 1.302 2.436 3.15 2.436 1.582 0 2.856-.826 2.856-2.156 0-1.582-1.302-1.89-2.926-2.086-1.036-.126-1.792-.224-1.792-1.008 0-.658.672-1.078 1.666-1.078.98 0 1.652.546 1.736 1.274h1.176c-.112-1.484-1.288-2.24-2.912-2.254-1.61-.014-2.8.84-2.8 2.142 0 1.484 1.274 1.806 2.87 2.002 1.064.126 1.848.196 1.848 1.092 0 .658-.714 1.092-1.722 1.092-1.19 0-1.932-.616-1.974-1.456h-1.176zm8.372.49c0 1.26.49 1.862 1.862 1.862h1.246v-1.05h-1.134c-.616 0-.826-.224-.826-.826v-4.214h1.848v-1.05h-1.848v-2.002h-1.148v2.002h-1.288v1.05h1.288v4.228zm5.251-6.482c.42 0 .742-.308.742-.742a.721.721 0 00-.742-.742.721.721 0 00-.742.742c0 .434.322.742.742.742zm-.588 8.344h1.148v-7.14h-1.148V170zm6.57.084c2.086 0 3.542-1.484 3.542-3.654s-1.456-3.654-3.542-3.654-3.542 1.484-3.542 3.654 1.456 3.654 3.542 3.654zm0-1.022c-1.414 0-2.366-1.106-2.366-2.632s.952-2.632 2.366-2.632c1.414 0 2.366 1.106 2.366 2.632s-.952 2.632-2.366 2.632zm8.919-6.286c-1.204 0-1.932.504-2.352 1.05l-.154-.966h-.994V170h1.148v-3.57c0-1.61.812-2.604 2.156-2.604 1.246 0 1.932.784 1.932 2.268V170h1.148v-3.976c0-2.366-1.274-3.248-2.884-3.248zm12.422 7.308c2.086 0 3.542-1.484 3.542-3.654s-1.456-3.654-3.542-3.654-3.542 1.484-3.542 3.654 1.456 3.654 3.542 3.654zm0-1.022c-1.414 0-2.366-1.106-2.366-2.632s.952-2.632 2.366-2.632c1.414 0 2.366 1.106 2.366 2.632s-.952 2.632-2.366 2.632zm4.58-5.152h1.288V170h1.148v-6.09h2.016v-1.05h-2.016v-.826c0-.546.21-.784.784-.784h1.232v-1.05h-1.302c-1.33 0-1.862.602-1.862 1.862v.798h-1.288v1.05zm10.597 4.228c0 1.26.49 1.862 1.862 1.862h1.246v-1.05h-1.134c-.616 0-.826-.224-.826-.826v-4.214h1.848v-1.05h-1.848v-2.002h-1.148v2.002h-1.288v1.05h1.288v4.228zm8.163-5.362c-1.204 0-1.932.588-2.352 1.26V160.2h-1.148v9.8h1.148v-3.57c0-1.61.826-2.604 2.156-2.604 1.232 0 1.946.784 1.946 2.268V170h1.148v-3.976c0-2.366-1.302-3.248-2.898-3.248zm8.129 7.308c1.652 0 2.828-1.05 3.108-2.478h-1.162c-.238.924-1.022 1.456-2.03 1.456-1.358 0-2.212-.952-2.254-2.31v-.098h5.544c.014-.168.028-.336.028-.49-.056-2.114-1.372-3.388-3.388-3.388s-3.388 1.484-3.388 3.654c0 2.184 1.4 3.654 3.542 3.654zm-2.268-4.382c.112-1.162 1.078-1.918 2.128-1.918 1.19 0 2.03.686 2.142 1.918h-4.27zm14.803 4.382c1.736 0 2.898-.98 3.178-2.52h-1.218c-.224.91-.924 1.498-1.946 1.498-1.372 0-2.296-1.064-2.296-2.618 0-1.554.924-2.646 2.296-2.646 1.05 0 1.75.574 1.96 1.526h1.204c-.294-1.568-1.4-2.548-3.15-2.548-2.072 0-3.486 1.484-3.486 3.668 0 2.226 1.372 3.64 3.458 3.64zm9.994-3.654c0 1.61-.784 2.604-2.086 2.604-1.19 0-1.862-.784-1.862-2.268v-3.906h-1.148v3.976c0 2.366 1.246 3.248 2.814 3.248 1.176 0 1.862-.504 2.282-1.036l.154.952h.994v-7.14h-1.148v3.57zm2.979 1.218c.028 1.568 1.302 2.436 3.15 2.436 1.582 0 2.856-.826 2.856-2.156 0-1.582-1.302-1.89-2.926-2.086-1.036-.126-1.792-.224-1.792-1.008 0-.658.672-1.078 1.666-1.078.98 0 1.652.546 1.736 1.274h1.176c-.112-1.484-1.288-2.24-2.912-2.254-1.61-.014-2.8.84-2.8 2.142 0 1.484 1.274 1.806 2.87 2.002 1.064.126 1.848.196 1.848 1.092 0 .658-.714 1.092-1.722 1.092-1.19 0-1.932-.616-1.974-1.456h-1.176zm8.372.49c0 1.26.49 1.862 1.862 1.862h1.246v-1.05h-1.134c-.616 0-.826-.224-.826-.826v-4.214h1.848v-1.05h-1.848v-2.002h-1.148v2.002h-1.288v1.05h1.288v4.228zm7.775 1.946c2.086 0 3.542-1.484 3.542-3.654s-1.456-3.654-3.542-3.654-3.542 1.484-3.542 3.654 1.456 3.654 3.542 3.654zm0-1.022c-1.414 0-2.366-1.106-2.366-2.632s.952-2.632 2.366-2.632c1.414 0 2.366 1.106 2.366 2.632s-.952 2.632-2.366 2.632zm13.385-6.286c-1.274 0-2.044.588-2.478 1.358-.406-.91-1.26-1.358-2.254-1.358-1.106 0-1.708.546-2.086 1.064l-.154-.98h-.994V170h1.148v-3.766c0-1.428.714-2.408 1.89-2.408 1.092 0 1.722.728 1.722 2.128V170h1.148v-3.822c0-1.456.728-2.352 1.918-2.352 1.078 0 1.694.728 1.694 2.128V170h1.148v-4.116c0-2.254-1.218-3.108-2.702-3.108zm7.942 7.308c1.652 0 2.828-1.05 3.108-2.478h-1.162c-.238.924-1.022 1.456-2.03 1.456-1.358 0-2.212-.952-2.254-2.31v-.098h5.544c.014-.168.028-.336.028-.49-.056-2.114-1.372-3.388-3.388-3.388s-3.388 1.484-3.388 3.654c0 2.184 1.4 3.654 3.542 3.654zm-2.268-4.382c.112-1.162 1.078-1.918 2.128-1.918 1.19 0 2.03.686 2.142 1.918h-4.27zm10.676-2.842c-1.274 0-1.82.532-2.156 1.078l-.154-1.078h-.994V170h1.148v-3.64c0-1.134.406-2.38 1.904-2.38h.574v-1.12h-.322zM680.471 215.946a.57.57 0 00-.049-.234.71.71 0 00-.147-.205l-3.803-3.721a.547.547 0 00-.401-.161c-.104 0-.2.026-.288.078a.568.568 0 00-.21.2.577.577 0 00.103.699l3.428 3.344-3.428 3.345a.579.579 0 00-.103.698.544.544 0 00.21.205.556.556 0 00.288.078c.16 0 .293-.055.401-.166l3.803-3.72a.723.723 0 00.147-.205.571.571 0 00.049-.235zM533.529 373.054a.57.57 0 00.049.234.71.71 0 00.147.205l3.803 3.721a.547.547 0 00.401.161c.104 0 .2-.026.288-.078a.568.568 0 00.21-.2.577.577 0 00-.103-.699l-3.428-3.344 3.428-3.345a.579.579 0 00.103-.698.544.544 0 00-.21-.205.556.556 0 00-.288-.078.536.536 0 00-.401.166l-3.803 3.72a.723.723 0 00-.147.205.571.571 0 00-.049.235z" fill="#FBFBFB"/><path d="M95.81 239.15c0-2.266-1.507-3.916-3.674-3.916s-3.674 1.65-3.674 3.916 1.507 3.916 3.674 3.916 3.674-1.65 3.674-3.916zm-6.369 0c0-1.771 1.089-3.036 2.695-3.036 1.606 0 2.695 1.265 2.695 3.036 0 1.771-1.089 3.036-2.695 3.036-1.606 0-2.695-1.265-2.695-3.036zm11.703 1.045c0 1.265-.616 2.046-1.639 2.046-.934 0-1.462-.616-1.462-1.782v-3.069h-.903v3.124c0 1.859.98 2.552 2.212 2.552.923 0 1.462-.396 1.792-.814l.121.748h.781v-5.61h-.902v2.805zm2.902 1.342c0 .99.385 1.463 1.463 1.463h.979v-.825h-.891c-.484 0-.649-.176-.649-.649v-3.311h1.452v-.825h-1.452v-1.573h-.902v1.573h-1.012v.825h1.012v3.322zm6.38-4.213c-.946 0-1.551.451-1.925.968l-.121-.902h-.781v7.81h.902v-3.058c.341.539.979.924 1.925.924 1.551 0 2.695-1.155 2.695-2.871 0-1.826-1.144-2.871-2.695-2.871zm-.088 4.939c-1.1 0-1.848-.858-1.848-2.09 0-1.199.748-2.046 1.848-2.046 1.111 0 1.859.847 1.859 2.068s-.748 2.068-1.859 2.068zm8.071-2.068c0 1.265-.616 2.046-1.639 2.046-.935 0-1.463-.616-1.463-1.782v-3.069h-.902v3.124c0 1.859.979 2.552 2.211 2.552.924 0 1.463-.396 1.793-.814l.121.748h.781v-5.61h-.902v2.805zm2.901 1.342c0 .99.385 1.463 1.463 1.463h.979v-.825h-.891c-.484 0-.649-.176-.649-.649v-3.311h1.452v-.825h-1.452v-1.573h-.902v1.573h-1.012v.825h1.012v3.322zm6.894 1.463h.957v-7.7h-.957v7.7zm5.398-5.676c-.946 0-1.518.396-1.848.825l-.121-.759h-.781V243h.902v-2.805c0-1.265.638-2.046 1.694-2.046.979 0 1.518.616 1.518 1.782V243h.902v-3.124c0-1.859-1.001-2.552-2.266-2.552zm8.103.924c-.341-.539-.979-.924-1.925-.924-1.551 0-2.695 1.155-2.695 2.871 0 1.826 1.144 2.871 2.695 2.871.946 0 1.551-.451 1.925-.968l.121.902h.781v-7.7h-.902v2.948zm-1.837 4.015c-1.111 0-1.859-.847-1.859-2.068s.748-2.068 1.859-2.068c1.1 0 1.848.858 1.848 2.09 0 1.199-.748 2.046-1.848 2.046zm4.76-5.819c.33 0 .583-.242.583-.583a.567.567 0 00-.583-.583.567.567 0 00-.583.583c0 .341.253.583.583.583zm-.462 6.556h.902v-5.61h-.902V243zm4.987.066c1.364 0 2.277-.77 2.497-1.98h-.957c-.176.715-.726 1.177-1.529 1.177-1.078 0-1.804-.836-1.804-2.057s.726-2.079 1.804-2.079c.825 0 1.375.451 1.54 1.199h.946c-.231-1.232-1.1-2.002-2.475-2.002-1.628 0-2.739 1.166-2.739 2.882 0 1.749 1.078 2.86 2.717 2.86zm8.777-.891c-.253 0-.363-.077-.363-.374v-2.453c0-1.309-.825-2.024-2.255-2.024-1.353 0-2.244.649-2.376 1.749h.902c.11-.572.638-.946 1.43-.946.88 0 1.397.44 1.397 1.166v.385h-1.65c-1.474 0-2.255.627-2.255 1.749 0 1.023.836 1.639 2.068 1.639.968 0 1.529-.429 1.881-.935.011.55.264.869 1.012.869h.495v-.825h-.286zm-1.265-1.463c0 .935-.649 1.584-1.771 1.584-.748 0-1.221-.374-1.221-.924 0-.638.451-.935 1.254-.935h1.738v.275zm2.992.825c0 .99.385 1.463 1.463 1.463h.979v-.825h-.891c-.484 0-.649-.176-.649-.649v-3.311h1.452v-.825h-1.452v-1.573h-.902v1.573h-1.012v.825h1.012v3.322zm5.999 1.529c1.639 0 2.783-1.166 2.783-2.871s-1.144-2.871-2.783-2.871-2.783 1.166-2.783 2.871 1.144 2.871 2.783 2.871zm0-.803c-1.111 0-1.859-.869-1.859-2.068s.748-2.068 1.859-2.068 1.859.869 1.859 2.068-.748 2.068-1.859 2.068zm6.743-4.873c-1.001 0-1.43.418-1.694.847l-.121-.847h-.781V243h.902v-2.86c0-.891.319-1.87 1.496-1.87h.451v-.88h-.253zM92.059 197.066c1.738 0 3.014-.99 3.3-2.585h-1.012c-.286 1.078-1.111 1.705-2.299 1.705-1.617 0-2.607-1.265-2.607-3.036 0-1.782 1.034-3.036 2.651-3.036 1.155 0 1.969.638 2.266 1.705h1.012c-.286-1.595-1.529-2.585-3.234-2.585-2.233 0-3.674 1.584-3.674 3.916 0 2.354 1.386 3.916 3.597 3.916zm8.581-2.871c0 1.265-.616 2.046-1.64 2.046-.934 0-1.462-.616-1.462-1.782v-3.069h-.902v3.124c0 1.859.979 2.552 2.21 2.552.925 0 1.464-.396 1.794-.814l.121.748h.781v-5.61h-.902v2.805zm5.057-2.805c-1.001 0-1.43.418-1.694.847l-.121-.847h-.781V197h.902v-2.86c0-.891.319-1.87 1.496-1.87h.451v-.88h-.253zm3.961 0c-1.001 0-1.43.418-1.694.847l-.121-.847h-.781V197h.902v-2.86c0-.891.319-1.87 1.496-1.87h.451v-.88h-.253zm3.628 5.676c1.298 0 2.222-.825 2.442-1.947h-.913c-.187.726-.803 1.144-1.595 1.144-1.067 0-1.738-.748-1.771-1.815v-.077h4.356c.011-.132.022-.264.022-.385-.044-1.661-1.078-2.662-2.662-2.662-1.584 0-2.662 1.166-2.662 2.871 0 1.716 1.1 2.871 2.783 2.871zm-1.782-3.443c.088-.913.847-1.507 1.672-1.507.935 0 1.595.539 1.683 1.507h-3.355zm8.432-2.299c-.946 0-1.518.396-1.848.825l-.121-.759h-.781V197h.902v-2.805c0-1.265.638-2.046 1.694-2.046.979 0 1.518.616 1.518 1.782V197h.902v-3.124c0-1.859-1.001-2.552-2.266-2.552zm4.164 4.213c0 .99.385 1.463 1.463 1.463h.979v-.825h-.891c-.484 0-.649-.176-.649-.649v-3.311h1.452v-.825h-1.452v-1.573h-.902v1.573h-1.012v.825h1.012v3.322zm6.894 1.463h.957v-7.7h-.957v7.7zm5.398-5.676c-.946 0-1.518.396-1.848.825l-.121-.759h-.781V197h.902v-2.805c0-1.265.638-2.046 1.694-2.046.979 0 1.518.616 1.518 1.782V197h.902v-3.124c0-1.859-1.001-2.552-2.266-2.552zm6.573 0c-.946 0-1.551.451-1.925.968l-.121-.902h-.781v7.81h.902v-3.058c.341.539.979.924 1.925.924 1.551 0 2.695-1.155 2.695-2.871 0-1.826-1.144-2.871-2.695-2.871zm-.088 4.939c-1.1 0-1.848-.858-1.848-2.09 0-1.199.748-2.046 1.848-2.046 1.111 0 1.859.847 1.859 2.068s-.748 2.068-1.859 2.068zm8.07-2.068c0 1.265-.616 2.046-1.639 2.046-.935 0-1.463-.616-1.463-1.782v-3.069h-.902v3.124c0 1.859.979 2.552 2.211 2.552.924 0 1.463-.396 1.793-.814l.121.748h.781v-5.61h-.902v2.805zm2.901 1.342c0 .99.385 1.463 1.463 1.463h.979v-.825h-.891c-.484 0-.649-.176-.649-.649v-3.311h1.452v-.825h-1.452v-1.573h-.902v1.573h-1.012v.825h1.012v3.322zM88.748 170h.957v-7.7h-.957v7.7zm5.397-5.676c-.946 0-1.518.396-1.848.825l-.12-.759h-.782V170h.902v-2.805c0-1.265.638-2.046 1.694-2.046.98 0 1.518.616 1.518 1.782V170h.902v-3.124c0-1.859-1-2.552-2.266-2.552zm6.573 0c-.946 0-1.55.451-1.925.968l-.12-.902h-.782v7.81h.902v-3.058c.341.539.98.924 1.925.924 1.551 0 2.695-1.155 2.695-2.871 0-1.826-1.144-2.871-2.695-2.871zm-.088 4.939c-1.1 0-1.848-.858-1.848-2.09 0-1.199.748-2.046 1.848-2.046 1.111 0 1.859.847 1.859 2.068s-.748 2.068-1.859 2.068zm8.071-2.068c0 1.265-.616 2.046-1.639 2.046-.935 0-1.463-.616-1.463-1.782v-3.069h-.902v3.124c0 1.859.979 2.552 2.211 2.552.924 0 1.463-.396 1.793-.814l.121.748h.781v-5.61h-.902v2.805zm2.901 1.342c0 .99.385 1.463 1.463 1.463h.979v-.825h-.891c-.484 0-.649-.176-.649-.649v-3.311h1.452v-.825h-1.452v-1.573h-.902v1.573h-1.012v.825h1.012v3.322zm6.895 1.463h.957v-7.7h-.957v7.7zm5.397-5.676c-.946 0-1.518.396-1.848.825l-.121-.759h-.781V170h.902v-2.805c0-1.265.638-2.046 1.694-2.046.979 0 1.518.616 1.518 1.782V170h.902v-3.124c0-1.859-1.001-2.552-2.266-2.552zm8.103.924c-.341-.539-.979-.924-1.925-.924-1.551 0-2.695 1.155-2.695 2.871 0 1.826 1.144 2.871 2.695 2.871.946 0 1.551-.451 1.925-.968l.121.902h.781v-7.7h-.902v2.948zm-1.837 4.015c-1.111 0-1.859-.847-1.859-2.068s.748-2.068 1.859-2.068c1.1 0 1.848.858 1.848 2.09 0 1.199-.748 2.046-1.848 2.046zm4.76-5.819c.33 0 .583-.242.583-.583a.567.567 0 00-.583-.583.567.567 0 00-.583.583c0 .341.253.583.583.583zm-.462 6.556h.902v-5.61h-.902V170zm4.987.066c1.364 0 2.277-.77 2.497-1.98h-.957c-.176.715-.726 1.177-1.529 1.177-1.078 0-1.804-.836-1.804-2.057s.726-2.079 1.804-2.079c.825 0 1.375.451 1.54 1.199h.946c-.231-1.232-1.1-2.002-2.475-2.002-1.628 0-2.739 1.166-2.739 2.882 0 1.749 1.078 2.86 2.717 2.86zm8.777-.891c-.253 0-.363-.077-.363-.374v-2.453c0-1.309-.825-2.024-2.255-2.024-1.353 0-2.244.649-2.376 1.749h.902c.11-.572.638-.946 1.43-.946.88 0 1.397.44 1.397 1.166v.385h-1.65c-1.474 0-2.255.627-2.255 1.749 0 1.023.836 1.639 2.068 1.639.968 0 1.529-.429 1.881-.935.011.55.264.869 1.012.869h.495v-.825h-.286zm-1.265-1.463c0 .935-.649 1.584-1.771 1.584-.748 0-1.221-.374-1.221-.924 0-.638.451-.935 1.254-.935h1.738v.275zm2.992.825c0 .99.385 1.463 1.463 1.463h.979v-.825h-.891c-.484 0-.649-.176-.649-.649v-3.311h1.452v-.825h-1.452v-1.573h-.902v1.573h-1.012v.825h1.012v3.322zm5.999 1.529c1.639 0 2.783-1.166 2.783-2.871s-1.144-2.871-2.783-2.871-2.783 1.166-2.783 2.871 1.144 2.871 2.783 2.871zm0-.803c-1.111 0-1.859-.869-1.859-2.068s.748-2.068 1.859-2.068 1.859.869 1.859 2.068-.748 2.068-1.859 2.068zm6.743-4.873c-1.001 0-1.43.418-1.694.847l-.121-.847h-.781V170h.902v-2.86c0-.891.319-1.87 1.496-1.87h.451v-.88h-.253zM88.22 116.18h2.497V123h.957v-6.82h2.497v-.88H88.22v.88zm11.262 5.995c-.253 0-.363-.077-.363-.374v-2.453c0-1.309-.825-2.024-2.255-2.024-1.353 0-2.244.649-2.376 1.749h.902c.11-.572.638-.946 1.43-.946.88 0 1.397.44 1.397 1.166v.385h-1.65c-1.474 0-2.255.627-2.255 1.749 0 1.023.836 1.639 2.068 1.639.968 0 1.53-.429 1.881-.935.011.55.264.869 1.012.869h.495v-.825h-.286zm-1.265-1.463c0 .935-.649 1.584-1.77 1.584-.749 0-1.222-.374-1.222-.924 0-.638.451-.935 1.254-.935h1.738v.275zm2.344.44c.022 1.232 1.023 1.914 2.475 1.914 1.243 0 2.244-.649 2.244-1.694 0-1.243-1.023-1.485-2.299-1.639-.814-.099-1.408-.176-1.408-.792 0-.517.528-.847 1.309-.847.77 0 1.298.429 1.364 1.001h.924c-.088-1.166-1.012-1.76-2.288-1.771-1.265-.011-2.2.66-2.2 1.683 0 1.166 1.001 1.419 2.255 1.573.836.099 1.452.154 1.452.858 0 .517-.561.858-1.353.858-.935 0-1.518-.484-1.551-1.144h-.924zm6.05 1.848h.902v-1.474l1.133-1.166 1.859 2.64h1.089l-2.343-3.289 2.189-2.321h-1.111l-2.816 2.981V115.3h-.902v7.7zm11.753 0c2.409 0 3.872-1.551 3.872-3.85 0-2.31-1.463-3.85-3.872-3.85H115.9v7.7h2.464zm-1.507-6.82h1.507c1.87 0 2.893 1.166 2.893 2.97 0 1.793-1.023 2.97-2.893 2.97h-1.507v-5.94zm9.367 6.886c1.298 0 2.222-.825 2.442-1.947h-.913c-.187.726-.803 1.144-1.595 1.144-1.067 0-1.738-.748-1.771-1.815v-.077h4.356c.011-.132.022-.264.022-.385-.044-1.661-1.078-2.662-2.662-2.662-1.584 0-2.662 1.166-2.662 2.871 0 1.716 1.1 2.871 2.783 2.871zm-1.782-3.443c.088-.913.847-1.507 1.672-1.507.935 0 1.595.539 1.683 1.507h-3.355zm5.43 1.529c.022 1.232 1.023 1.914 2.475 1.914 1.243 0 2.244-.649 2.244-1.694 0-1.243-1.023-1.485-2.299-1.639-.814-.099-1.408-.176-1.408-.792 0-.517.528-.847 1.309-.847.77 0 1.298.429 1.364 1.001h.924c-.088-1.166-1.012-1.76-2.288-1.771-1.265-.011-2.2.66-2.2 1.683 0 1.166 1.001 1.419 2.255 1.573.836.099 1.452.154 1.452.858 0 .517-.561.858-1.353.858-.935 0-1.518-.484-1.551-1.144h-.924zm8.569 1.914c1.364 0 2.277-.77 2.497-1.98h-.957c-.176.715-.726 1.177-1.529 1.177-1.078 0-1.804-.836-1.804-2.057s.726-2.079 1.804-2.079c.825 0 1.375.451 1.54 1.199h.946c-.231-1.232-1.1-2.002-2.475-2.002-1.628 0-2.739 1.166-2.739 2.882 0 1.749 1.078 2.86 2.717 2.86zm6.412-5.676c-1.001 0-1.43.418-1.694.847l-.121-.847h-.781V123h.902v-2.86c0-.891.319-1.87 1.496-1.87h.451v-.88h-.253zm1.827-.946c.33 0 .583-.242.583-.583a.567.567 0 00-.583-.583.567.567 0 00-.583.583c0 .341.253.583.583.583zm-.462 6.556h.902v-5.61h-.902V123zm5.294-5.676c-.946 0-1.551.451-1.925.968l-.121-.902h-.781v7.81h.902v-3.058c.341.539.979.924 1.925.924 1.551 0 2.695-1.155 2.695-2.871 0-1.826-1.144-2.871-2.695-2.871zm-.088 4.939c-1.1 0-1.848-.858-1.848-2.09 0-1.199.748-2.046 1.848-2.046 1.111 0 1.859.847 1.859 2.068s-.748 2.068-1.859 2.068zm4.498-.726c0 .99.385 1.463 1.463 1.463h.979v-.825h-.891c-.484 0-.649-.176-.649-.649v-3.311h1.452v-.825h-1.452v-1.573h-.902v1.573h-1.012v.825h1.012v3.322zm4.015-5.093c.33 0 .583-.242.583-.583a.567.567 0 00-.583-.583.567.567 0 00-.583.583c0 .341.253.583.583.583zm-.462 6.556h.902v-5.61h-.902V123zm5.053.066c1.639 0 2.783-1.166 2.783-2.871s-1.144-2.871-2.783-2.871-2.783 1.166-2.783 2.871 1.144 2.871 2.783 2.871zm0-.803c-1.111 0-1.859-.869-1.859-2.068s.748-2.068 1.859-2.068 1.859.869 1.859 2.068-.748 2.068-1.859 2.068zm6.897-4.939c-.946 0-1.518.396-1.848.825l-.121-.759h-.781V123h.902v-2.805c0-1.265.638-2.046 1.694-2.046.979 0 1.518.616 1.518 1.782V123h.902v-3.124c0-1.859-1.001-2.552-2.266-2.552z" fill="#000"/><path stroke="#999" d="M229 119.5h-50M229 241.5h-52M229 194.5h-68M229 166.5h-61"/></svg>