<svg width="975" height="360" fill="none" xmlns="http://www.w3.org/2000/svg"><path fill="#F7F7F7" d="M0 0h975v360H0z"/><circle cx="758" cy="203" r="117" fill="#333293" fill-opacity=".9"/><path d="M718.099 198v-2.142h-6.321V183.3h-2.415V198h8.736zm11.617-1.974c-.462 0-.693-.147-.693-.693v-4.305c0-2.541-1.638-3.906-4.494-3.906-2.709 0-4.515 1.302-4.746 3.402h2.226c.168-.945 1.071-1.575 2.415-1.575 1.491 0 2.352.735 2.352 1.932v.651h-2.709c-3.003 0-4.599 1.239-4.599 3.444 0 1.995 1.638 3.15 3.99 3.15 1.743 0 2.835-.756 3.549-1.848 0 1.071.504 1.722 1.974 1.722h1.197v-1.974h-.462zm-2.94-2.436c-.021 1.659-1.113 2.772-3.003 2.772-1.239 0-1.995-.63-1.995-1.533 0-1.092.777-1.617 2.184-1.617h2.814v.378zm10.727-6.468c-1.743 0-2.772.693-3.444 1.533l-.252-1.407h-1.974V198h2.268v-5.418c0-2.184 1.071-3.507 2.877-3.507 1.701 0 2.562 1.092 2.562 3.129V198h2.289v-5.985c0-3.591-1.953-4.893-4.326-4.893zm15.02 1.806c-.693-1.071-1.848-1.806-3.528-1.806-2.919 0-5.082 2.163-5.082 5.46 0 3.423 2.163 5.46 5.082 5.46 1.68 0 2.793-.693 3.507-1.764v1.197c0 2.058-1.113 3.003-3.087 3.003-1.596 0-2.646-.693-2.919-1.89h-2.31c.21 2.415 2.205 3.738 5.061 3.738 3.864 0 5.502-1.848 5.502-4.767v-10.311h-1.974l-.252 1.68zm-3.15 7.203c-1.89 0-3.129-1.449-3.129-3.549 0-2.079 1.239-3.549 3.129-3.549s3.129 1.47 3.129 3.591c0 2.058-1.239 3.507-3.129 3.507zm15.383-3.507c0 2.226-1.05 3.528-2.772 3.528-1.659 0-2.499-1.071-2.499-3.171v-5.733h-2.268v5.985c0 3.675 1.953 4.893 4.242 4.893 1.659 0 2.646-.672 3.318-1.491l.252 1.365h1.995v-10.752h-2.268v5.376zm14.751 3.402c-.462 0-.693-.147-.693-.693v-4.305c0-2.541-1.638-3.906-4.494-3.906-2.709 0-4.515 1.302-4.746 3.402h2.226c.168-.945 1.071-1.575 2.415-1.575 1.491 0 2.352.735 2.352 1.932v.651h-2.709c-3.003 0-4.599 1.239-4.599 3.444 0 1.995 1.638 3.15 3.99 3.15 1.743 0 2.835-.756 3.549-1.848 0 1.071.504 1.722 1.974 1.722h1.197v-1.974h-.462zm-2.94-2.436c-.021 1.659-1.113 2.772-3.003 2.772-1.239 0-1.995-.63-1.995-1.533 0-1.092.777-1.617 2.184-1.617h2.814v.378zm13.268-4.662c-.693-1.071-1.848-1.806-3.528-1.806-2.919 0-5.082 2.163-5.082 5.46 0 3.423 2.163 5.46 5.082 5.46 1.68 0 2.793-.693 3.507-1.764v1.197c0 2.058-1.113 3.003-3.087 3.003-1.596 0-2.646-.693-2.919-1.89h-2.31c.21 2.415 2.205 3.738 5.061 3.738 3.864 0 5.502-1.848 5.502-4.767v-10.311h-1.974l-.252 1.68zm-3.15 7.203c-1.89 0-3.129-1.449-3.129-3.549 0-2.079 1.239-3.549 3.129-3.549s3.129 1.47 3.129 3.591c0 2.058-1.239 3.507-3.129 3.507zm13.116 1.995c2.667 0 4.473-1.617 4.851-3.738h-2.268c-.315 1.197-1.323 1.89-2.709 1.89-1.785 0-2.94-1.197-3.003-3.024v-.147h8.106a6.16 6.16 0 00.063-.861c-.063-3.15-2.142-5.124-5.25-5.124-3.171 0-5.292 2.205-5.292 5.523 0 3.297 2.121 5.481 5.502 5.481zm-3.045-6.678c.168-1.533 1.407-2.499 2.856-2.499 1.575 0 2.688.903 2.877 2.499h-5.733zM727.645 222h2.331v-10.815l4.41 10.815h2.037l4.41-10.815V222h2.331v-14.7h-3.066l-4.62 11.571-4.704-11.571h-3.129V222zm23.482.126c3.276 0 5.481-2.205 5.481-5.502 0-3.276-2.205-5.502-5.481-5.502s-5.481 2.226-5.481 5.502c0 3.297 2.205 5.502 5.481 5.502zm0-1.932c-1.911 0-3.15-1.491-3.15-3.57 0-2.079 1.239-3.57 3.15-3.57 1.911 0 3.171 1.491 3.171 3.57 0 2.079-1.26 3.57-3.171 3.57zm15.893-7.455c-.693-.945-1.848-1.617-3.486-1.617-2.919 0-5.082 2.184-5.082 5.502 0 3.444 2.163 5.502 5.082 5.502 1.701 0 2.814-.798 3.507-1.743l.273 1.617h1.974v-14.7h-2.268v5.439zm-3.108 7.476c-1.89 0-3.129-1.47-3.129-3.591 0-2.1 1.239-3.57 3.129-3.57s3.129 1.47 3.129 3.612c0 2.079-1.239 3.549-3.129 3.549zm13.116 1.911c2.667 0 4.473-1.617 4.851-3.738h-2.268c-.315 1.197-1.323 1.89-2.709 1.89-1.785 0-2.94-1.197-3.003-3.024v-.147h8.106a6.16 6.16 0 00.063-.861c-.063-3.15-2.142-5.124-5.25-5.124-3.171 0-5.292 2.205-5.292 5.523 0 3.297 2.121 5.481 5.502 5.481zm-3.045-6.678c.168-1.533 1.407-2.499 2.856-2.499 1.575 0 2.688.903 2.877 2.499h-5.733zM784.321 222h2.268v-14.7h-2.268V222z" fill="#F1F1F7"/><path d="M101.428 64h1.827v-5.649h3.822c2.94 0 4.872-1.785 4.872-4.536 0-2.751-1.932-4.515-4.872-4.515h-5.649V64zm5.502-13.02c1.932 0 3.15 1.092 3.15 2.835 0 1.743-1.239 2.856-3.171 2.856h-3.654V50.98h3.675zm12.091 2.31c-1.911 0-2.73.798-3.234 1.617l-.231-1.617h-1.491V64h1.722v-5.46c0-1.701.609-3.57 2.856-3.57h.861v-1.68h-.483zm6.715 10.836c3.129 0 5.313-2.226 5.313-5.481s-2.184-5.481-5.313-5.481c-3.129 0-5.313 2.226-5.313 5.481s2.184 5.481 5.313 5.481zm0-1.533c-2.121 0-3.549-1.659-3.549-3.948 0-2.289 1.428-3.948 3.549-3.948s3.549 1.659 3.549 3.948c0 2.289-1.428 3.948-3.549 3.948zm19.657-9.429c-1.911 0-3.066.882-3.717 2.037-.609-1.365-1.89-2.037-3.381-2.037-1.659 0-2.562.819-3.129 1.596l-.231-1.47h-1.491V64h1.722v-5.649c0-2.142 1.071-3.612 2.835-3.612 1.638 0 2.583 1.092 2.583 3.192V64h1.722v-5.733c0-2.184 1.092-3.528 2.877-3.528 1.617 0 2.541 1.092 2.541 3.192V64h1.722v-6.174c0-3.381-1.827-4.662-4.053-4.662zm12.079 0c-1.806 0-2.961.861-3.675 1.848l-.231-1.722h-1.491V68.2h1.722v-5.838c.651 1.029 1.869 1.764 3.675 1.764 2.961 0 5.145-2.205 5.145-5.481 0-3.486-2.184-5.481-5.145-5.481zm-.168 9.429c-2.1 0-3.528-1.638-3.528-3.99 0-2.289 1.428-3.906 3.528-3.906 2.121 0 3.549 1.617 3.549 3.948s-1.428 3.948-3.549 3.948zm8.375-1.386c0 1.89.735 2.793 2.793 2.793h1.869v-1.575h-1.701c-.924 0-1.239-.336-1.239-1.239v-6.321h2.772V53.29h-2.772v-3.003h-1.722v3.003h-1.932v1.575h1.932v6.342zM107.791 241.126c2.52 0 4.095-1.197 4.767-2.268l.126 2.142h1.575v-7.959h-6.195v1.68h4.41v.504c0 2.604-1.953 4.221-4.662 4.221-3.045 0-5.061-2.394-5.061-5.796s2.016-5.796 5.103-5.796c2.226 0 3.801 1.197 4.305 3.234h1.953c-.504-3.024-2.961-4.914-6.216-4.914-4.263 0-7.014 3.024-7.014 7.476s2.835 7.476 6.909 7.476zm14.428 0c2.478 0 4.242-1.575 4.662-3.717h-1.743c-.357 1.386-1.533 2.184-3.045 2.184-2.037 0-3.318-1.428-3.381-3.465v-.147h8.316c.021-.252.042-.504.042-.735-.084-3.171-2.058-5.082-5.082-5.082s-5.082 2.226-5.082 5.481c0 3.276 2.1 5.481 5.313 5.481zm-3.402-6.573c.168-1.743 1.617-2.877 3.192-2.877 1.785 0 3.045 1.029 3.213 2.877h-6.405zm15.888-4.389c-1.806 0-2.898.756-3.528 1.575l-.231-1.449h-1.491V241h1.722v-5.355c0-2.415 1.218-3.906 3.234-3.906 1.869 0 2.898 1.176 2.898 3.402V241h1.722v-5.964c0-3.549-1.911-4.872-4.326-4.872zm11.754 10.962c2.478 0 4.242-1.575 4.662-3.717h-1.743c-.357 1.386-1.533 2.184-3.045 2.184-2.037 0-3.318-1.428-3.381-3.465v-.147h8.316c.021-.252.042-.504.042-.735-.084-3.171-2.058-5.082-5.082-5.082s-5.082 2.226-5.082 5.481c0 3.276 2.1 5.481 5.313 5.481zm-3.402-6.573c.168-1.743 1.617-2.877 3.192-2.877 1.785 0 3.045 1.029 3.213 2.877h-6.405zm15.594-4.263c-1.911 0-2.73.798-3.234 1.617l-.231-1.617h-1.491V241h1.722v-5.46c0-1.701.609-3.57 2.856-3.57h.861v-1.68h-.483zm11.497 9.135c-.483 0-.693-.147-.693-.714v-4.683c0-2.499-1.575-3.864-4.305-3.864-2.583 0-4.284 1.239-4.536 3.339h1.722c.21-1.092 1.218-1.806 2.73-1.806 1.68 0 2.667.84 2.667 2.226v.735h-3.15c-2.814 0-4.305 1.197-4.305 3.339 0 1.953 1.596 3.129 3.948 3.129 1.848 0 2.919-.819 3.591-1.785.021 1.05.504 1.659 1.932 1.659h.945v-1.575h-.546zm-2.415-2.793c0 1.785-1.239 3.024-3.381 3.024-1.428 0-2.331-.714-2.331-1.764 0-1.218.861-1.785 2.394-1.785h3.318v.525zm5.503 1.575c0 1.89.735 2.793 2.793 2.793h1.869v-1.575h-1.701c-.924 0-1.239-.336-1.239-1.239v-6.321h2.772v-1.575h-2.772v-3.003h-1.722v3.003h-1.932v1.575h1.932v6.342zm11.243 2.919c2.478 0 4.242-1.575 4.662-3.717h-1.743c-.357 1.386-1.533 2.184-3.045 2.184-2.037 0-3.318-1.428-3.381-3.465v-.147h8.316c.021-.252.042-.504.042-.735-.084-3.171-2.058-5.082-5.082-5.082s-5.082 2.226-5.082 5.481c0 3.276 2.1 5.481 5.313 5.481zm-3.402-6.573c.168-1.743 1.617-2.877 3.192-2.877 1.785 0 3.045 1.029 3.213 2.877h-6.405zm19.08-2.625c-.651-1.029-1.869-1.764-3.675-1.764-2.961 0-5.145 2.205-5.145 5.481 0 3.486 2.184 5.481 5.145 5.481 1.806 0 2.961-.861 3.675-1.848l.231 1.722h1.491v-14.7h-1.722v5.628zm-3.507 7.665c-2.121 0-3.549-1.617-3.549-3.948s1.428-3.948 3.549-3.948c2.1 0 3.528 1.638 3.528 3.99 0 2.289-1.428 3.906-3.528 3.906zm13.155-11.613h4.767V241h1.827v-13.02h4.767v-1.68h-11.361v1.68zm16.426 13.146c2.478 0 4.242-1.575 4.662-3.717h-1.743c-.357 1.386-1.533 2.184-3.045 2.184-2.037 0-3.318-1.428-3.381-3.465v-.147h8.316c.021-.252.042-.504.042-.735-.084-3.171-2.058-5.082-5.082-5.082s-5.082 2.226-5.082 5.481c0 3.276 2.1 5.481 5.313 5.481zm-3.402-6.573c.168-1.743 1.617-2.877 3.192-2.877 1.785 0 3.045 1.029 3.213 2.877h-6.405zm9.053 6.447h1.953l3.129-4.305 3.129 4.305h2.058l-4.095-5.502 3.822-5.208h-1.953l-2.877 3.969-2.835-3.969h-2.058l3.801 5.208-4.074 5.502zm12.811-2.793c0 1.89.735 2.793 2.793 2.793h1.869v-1.575h-1.701c-.924 0-1.239-.336-1.239-1.239v-6.321h2.772v-1.575h-2.772v-3.003h-1.722v3.003h-1.932v1.575h1.932v6.342z" fill="#262626"/><rect x="100" y="82" width="256" height="109" rx="4" fill="#EBEBF8"/><rect x="100" y="255" width="256" height="64" rx="4" fill="#EBEBF8"/><rect x="112" y="94" width="232" height="8" rx="4" fill="#333293" fill-opacity=".4"/><rect x="112" y="158" width="102" height="21" rx="10" fill="#333293"/><path d="M122.952 174h1.218v-9.8h-1.218v9.8zm7.009-7.224c-1.204 0-1.932.504-2.352 1.05l-.154-.966h-.994V174h1.148v-3.57c0-1.61.812-2.604 2.156-2.604 1.246 0 1.932.784 1.932 2.268V174h1.148v-3.976c0-2.366-1.274-3.248-2.884-3.248zm8.838 4.872c.028 1.568 1.302 2.436 3.15 2.436 1.582 0 2.856-.826 2.856-2.156 0-1.582-1.302-1.89-2.926-2.086-1.036-.126-1.792-.224-1.792-1.008 0-.658.672-1.078 1.666-1.078.98 0 1.652.546 1.736 1.274h1.176c-.112-1.484-1.288-2.24-2.912-2.254-1.61-.014-2.8.84-2.8 2.142 0 1.484 1.274 1.806 2.87 2.002 1.064.126 1.848.196 1.848 1.092 0 .658-.714 1.092-1.722 1.092-1.19 0-1.932-.616-1.974-1.456h-1.176zm12.838-1.218c0 1.61-.784 2.604-2.086 2.604-1.19 0-1.862-.784-1.862-2.268v-3.906h-1.148v3.976c0 2.366 1.246 3.248 2.814 3.248 1.176 0 1.862-.504 2.282-1.036l.154.952h.994v-7.14h-1.148v3.57zm11.239-3.654c-1.274 0-2.044.588-2.478 1.358-.406-.91-1.26-1.358-2.254-1.358-1.106 0-1.708.546-2.086 1.064l-.154-.98h-.994V174h1.148v-3.766c0-1.428.714-2.408 1.89-2.408 1.092 0 1.722.728 1.722 2.128V174h1.148v-3.822c0-1.456.728-2.352 1.918-2.352 1.078 0 1.694.728 1.694 2.128V174h1.148v-4.116c0-2.254-1.218-3.108-2.702-3.108zm12.701 0c-1.274 0-2.044.588-2.478 1.358-.406-.91-1.26-1.358-2.254-1.358-1.106 0-1.708.546-2.086 1.064l-.154-.98h-.994V174h1.148v-3.766c0-1.428.714-2.408 1.89-2.408 1.092 0 1.722.728 1.722 2.128V174h1.148v-3.822c0-1.456.728-2.352 1.918-2.352 1.078 0 1.694.728 1.694 2.128V174h1.148v-4.116c0-2.254-1.218-3.108-2.702-3.108zm11.048 6.174c-.322 0-.462-.098-.462-.476v-3.122c0-1.666-1.05-2.576-2.87-2.576-1.722 0-2.856.826-3.024 2.226h1.148c.14-.728.812-1.204 1.82-1.204 1.12 0 1.778.56 1.778 1.484v.49h-2.1c-1.876 0-2.87.798-2.87 2.226 0 1.302 1.064 2.086 2.632 2.086 1.232 0 1.946-.546 2.394-1.19.014.7.336 1.106 1.288 1.106h.63v-1.05h-.364zm-1.61-1.862c0 1.19-.826 2.016-2.254 2.016-.952 0-1.554-.476-1.554-1.176 0-.812.574-1.19 1.596-1.19h2.212v.35zm6.721-4.228c-1.274 0-1.82.532-2.156 1.078l-.154-1.078h-.994V174h1.148v-3.64c0-1.134.406-2.38 1.904-2.38h.574v-1.12h-.322zm4.004 7.182l-.35.868c-.266.672-.378.84-1.036.84h-1.022v1.05h1.372c1.008 0 1.274-.448 1.722-1.596l3.29-8.344h-1.218l-2.128 5.698-2.198-5.698h-1.218l2.786 7.182zm5.252-5.992c0 .476.336.784.798.784s.798-.308.798-.784c0-.476-.336-.784-.798-.784s-.798.308-.798.784zm0 5.25c0 .476.336.784.798.784s.798-.308.798-.784c0-.476-.336-.784-.798-.784s-.798.308-.798.784z" fill="#FBFBFB"/><rect x="344" y="307" width="232" height="8" rx="4" transform="rotate(-180 344 307)" fill="#917EF3"/><rect x="112" y="110" width="232" height="8" rx="4" fill="#333293" fill-opacity=".4"/><rect x="344" y="291" width="232" height="8" rx="4" transform="rotate(-180 344 291)" fill="#917EF3"/><rect x="112" y="126" width="232" height="8" rx="4" fill="#333293" fill-opacity=".4"/><rect x="112" y="142" width="232" height="8" rx="4" fill="#333293" fill-opacity=".4"/><rect x="344" y="275" width="116" height="8" rx="4" transform="rotate(-180 344 275)" fill="#917EF3"/><path d="M493.526 96h1.392V84.8h-1.392V96zm7.851-8.256c-1.376 0-2.208.576-2.688 1.2l-.176-1.104h-1.136V96h1.312v-4.08c0-1.84.928-2.976 2.464-2.976 1.424 0 2.208.896 2.208 2.592V96h1.312v-4.544c0-2.704-1.456-3.712-3.296-3.712zm9.561 0c-1.376 0-2.256.656-2.8 1.408l-.176-1.312h-1.136V99.2h1.312v-4.448c.496.784 1.424 1.344 2.8 1.344 2.256 0 3.92-1.68 3.92-4.176 0-2.656-1.664-4.176-3.92-4.176zm-.128 7.184c-1.6 0-2.688-1.248-2.688-3.04 0-1.744 1.088-2.976 2.688-2.976 1.616 0 2.704 1.232 2.704 3.008s-1.088 3.008-2.704 3.008zm11.739-3.008c0 1.84-.896 2.976-2.384 2.976-1.36 0-2.128-.896-2.128-2.592V87.84h-1.312v4.544c0 2.704 1.424 3.712 3.216 3.712 1.344 0 2.128-.576 2.608-1.184l.176 1.088h1.136v-8.16h-1.312v4.08zm4.22 1.952c0 1.44.56 2.128 2.128 2.128h1.424v-1.2h-1.296c-.704 0-.944-.256-.944-.944V89.04h2.112v-1.2h-2.112v-2.288h-1.312v2.288h-1.472v1.2h1.472v4.832zM497.738 261.4c0-3.296-2.192-5.696-5.344-5.696s-5.344 2.4-5.344 5.696 2.192 5.696 5.344 5.696 5.344-2.4 5.344-5.696zm-9.264 0c0-2.576 1.584-4.416 3.92-4.416s3.92 1.84 3.92 4.416c0 2.576-1.584 4.416-3.92 4.416s-3.92-1.84-3.92-4.416zm17.023 1.52c0 1.84-.896 2.976-2.384 2.976-1.36 0-2.128-.896-2.128-2.592v-4.464h-1.312v4.544c0 2.704 1.424 3.712 3.216 3.712 1.344 0 2.128-.576 2.608-1.184l.176 1.088h1.136v-8.16h-1.312v4.08zm4.22 1.952c0 1.44.56 2.128 2.128 2.128h1.424v-1.2h-1.296c-.704 0-.944-.256-.944-.944v-4.816h2.112v-1.2h-2.112v-2.288h-1.312v2.288h-1.472v1.2h1.472v4.832zm9.281-6.128c-1.376 0-2.256.656-2.8 1.408l-.176-1.312h-1.136v11.36h1.312v-4.448c.496.784 1.424 1.344 2.8 1.344 2.256 0 3.92-1.68 3.92-4.176 0-2.656-1.664-4.176-3.92-4.176zm-.128 7.184c-1.6 0-2.688-1.248-2.688-3.04 0-1.744 1.088-2.976 2.688-2.976 1.616 0 2.704 1.232 2.704 3.008s-1.088 3.008-2.704 3.008zm11.739-3.008c0 1.84-.896 2.976-2.384 2.976-1.36 0-2.128-.896-2.128-2.592v-4.464h-1.312v4.544c0 2.704 1.424 3.712 3.216 3.712 1.344 0 2.128-.576 2.608-1.184l.176 1.088h1.136v-8.16h-1.312v4.08zm4.22 1.952c0 1.44.56 2.128 2.128 2.128h1.424v-1.2h-1.296c-.704 0-.944-.256-.944-.944v-4.816h2.112v-1.2h-2.112v-2.288h-1.312v2.288h-1.472v1.2h1.472v4.832z" fill="#262626"/><path d="M666 130H358M356 287h321" stroke="#000" stroke-width="1.5" stroke-linecap="round" stroke-dasharray="0.5 8"/><path d="M671.5 130a6.5 6.5 0 11-13 0 6.5 6.5 0 0113 0z" fill="#333293" stroke="#333293"/><path d="M667.471 129.946a.57.57 0 00-.049-.234.71.71 0 00-.147-.205l-3.803-3.721a.547.547 0 00-.401-.161c-.104 0-.2.026-.288.078a.568.568 0 00-.21.2.577.577 0 00.103.699l3.428 3.344-3.428 3.345a.579.579 0 00-.103.698.544.544 0 00.21.205.556.556 0 00.288.078c.16 0 .293-.055.401-.166l3.803-3.72a.723.723 0 00.147-.205.571.571 0 00.049-.235z" fill="#FBFBFB"/><path d="M362.5 287a6.5 6.5 0 11-13 0 6.5 6.5 0 0113 0z" fill="#333293" stroke="#333293"/><path d="M353.529 287.054a.57.57 0 00.049.234.71.71 0 00.147.205l3.803 3.721a.547.547 0 00.401.161c.104 0 .2-.026.288-.078a.568.568 0 00.21-.2.577.577 0 00-.103-.699l-3.428-3.344 3.428-3.345a.579.579 0 00.103-.698.544.544 0 00-.21-.205.556.556 0 00-.288-.078.536.536 0 00-.401.166l-3.803 3.72a.723.723 0 00-.147.205.571.571 0 00-.049.235z" fill="#FBFBFB"/></svg>